<?xml version="1.0" encoding="UTF-8"?>
<svg id="_圖層_1" data-name="圖層 1" xmlns="http://www.w3.org/2000/svg" viewBox="0 0 283.46 283.46">
  <defs>
    <style>
      .cls-1 {
        fill: #f6f5f3;
      }
    </style>
  </defs>
  <path class="cls-1" d="M258.53,141.59c12.35,1.95,22.34,11.76,24.93,23.88l-.04,92.08c-2.72,13.26-14.56,23.3-28.08,24.31-27.37-1.32-56.32,1.7-83.51,0-11.2-.7-21.64-7.66-26.3-17.81-.9-1.96-1.3-3.97-2.03-5.89-.17-.45,0-.94-.73-.75-.31.08-1.55,5.13-1.9,6.01-4.64,11.8-15.75,18.85-28.3,19.58-26.54,1.53-54.55-1.19-81.24,0-15.36-.96-27.61-12.06-29.63-27.28l-.02-85.74c.97-11.15,8.58-21.3,18.91-25.54.82-.34,5.59-1.6,5.66-1.89.17-.7-.28-.58-.75-.74-2.72-.9-5.27-1.31-7.95-2.63-9.84-4.84-16.31-15.05-17-25.94-1.7-27.07,1.32-55.88,0-83.13C1.79,15.36,13.16,3.52,27.94,1.73c28.07,1.36,57.89-1.83,85.75-.02,10.46.68,20.9,7.9,25.28,17.32.94,2.01,1.3,4.28,2.09,6.19.19.46.25,1.03.93.95,2.7-14.26,14.47-24.7,29.07-25.59,27.16,1.43,56.19-1.84,83.13,0,15.09,1.03,27.15,12.82,28.83,27.7l.06,84.57c-1.12,11.96-8.25,21.63-19.28,26.3-1.39.59-3.48.86-4.62,1.41-.52.25-.78.41-.66,1.04Z"/>
</svg>