<?xml version="1.0" encoding="UTF-8"?>
<svg id="_圖層_1" data-name="圖層 1" xmlns="http://www.w3.org/2000/svg" viewBox="0 0 283.46 283.46">
  <defs>
    <style>
      .cls-1 {
        fill: #f6f5f3;
      }
    </style>
  </defs>
  <path class="cls-1" d="M246.14,224.24c-10.59,10.34-22.76,5.94-33.61,13.31-14.47,9.83-11.45,29.38-33.26,33.4-16.08,2.97-21.85-8.32-35.32-9.27-16.51-1.16-23.59,13.55-41.77,8.81-19.92-5.19-17.22-23.08-30.75-32.65-13.01-9.21-27.16-1.64-38.16-18.71-9.68-15.01-.49-25.21-3.79-39.69-4.13-18.13-22.58-19.55-20.85-42.95,1.26-16.96,16.32-20.86,20.39-35.04,4.64-16.18-6.99-28.68,6.44-44.65,8.77-10.44,16.68-8.44,28.07-11.78,22.2-6.52,17.09-35.28,43.09-37.34,14.93-1.18,21.84,9.77,34.79,9.83,16,.07,22.69-14.72,41.76-8.47,17.66,5.79,15.8,22.1,28,31.42,7.94,6.07,14.29,4.88,23.07,7.36,11.29,3.2,19.81,13.96,20.73,25.65.66,8.41-2.83,15.88-1.35,24.54,3.24,18.95,23.44,20.93,21.23,44.98-1.51,16.41-15.91,20.25-20.24,34.1-3.59,11.47,1.84,20.37-.09,31.43-.96,5.51-4.36,11.83-8.36,15.73Z"/>
</svg>