<?xml version="1.0" encoding="UTF-8"?>
<svg id="_圖層_1" data-name="圖層 1" xmlns="http://www.w3.org/2000/svg" viewBox="0 0 283.46 283.46">
  <defs>
    <style>
      .cls-1 {
        fill: #cecac4;
        stroke: #cecac4;
        stroke-miterlimit: 10;
        stroke-width: 3px;
      }
    </style>
  </defs>
  <path class="cls-1" d="M254.66,141.6c11.94,1.89,21.6,11.37,24.1,23.08l-.04,89.03c-2.63,12.82-14.07,22.52-27.15,23.5-26.47-1.27-54.45,1.64-80.74,0-10.83-.68-20.93-7.4-25.43-17.22-.87-1.9-1.25-3.84-1.96-5.7-.17-.44,0-.91-.71-.73-.3.07-1.5,4.96-1.84,5.81-4.48,11.41-15.23,18.23-27.36,18.93-25.66,1.48-52.74-1.15-78.55,0-14.86-.92-26.69-11.66-28.65-26.38l-.02-82.89c.94-10.78,8.29-20.6,18.28-24.7.79-.33,5.4-1.55,5.47-1.83.17-.68-.27-.56-.73-.71-2.63-.87-5.1-1.26-7.69-2.54-9.52-4.68-15.77-14.55-16.43-25.08-1.65-26.17,1.28-54.03,0-80.37,1.21-14.24,12.21-25.7,26.5-27.43,27.13,1.32,55.97-1.77,82.91-.02,10.11.66,20.2,7.64,24.44,16.74.9,1.94,1.26,4.14,2.02,5.99.19.45.24.99.9.92,2.61-13.78,13.99-23.88,28.11-24.74,26.26,1.38,54.32-1.78,80.37,0,14.59,1,26.25,12.39,27.88,26.78l.06,81.76c-1.09,11.56-7.97,20.91-18.64,25.43-1.34.57-3.36.83-4.47,1.37-.5.24-.75.39-.63,1Z"/>
</svg>