<?xml version="1.0" encoding="UTF-8"?>
<svg id="_圖層_1" data-name="圖層 1" xmlns="http://www.w3.org/2000/svg" viewBox="0 0 283.46 283.46">
  <defs>
    <style>
      .cls-1 {
        fill: #cecac4;
      }
    </style>
  </defs>
  <path class="cls-1" d="M278.76,190.03l-.04,67.97c0,.4-.05.81-.16,1.2-2.87,10.09-13.9,17.7-26.54,18.63-.3.02-.6.02-.9.01-26.33-1-54.15,1.35-80.29.02-10.83-.55-20.93-6.06-25.43-14.11-.87-1.55-1.25-3.15-1.96-4.67-.17-.36,0-.74-.71-.6-.3.06-1.5,4.06-1.84,4.76-4.48,9.35-15.23,14.93-27.36,15.51-25.53,1.2-52.47-.92-78.16-.02-.26,0-.52,0-.78,0-14.51-.88-26.06-9.44-28.19-21.18-.05-.27-.07-.54-.07-.81l-.02-195.74,272.19.09.26,128.94Z"/>
</svg>