<?xml version="1.0" encoding="UTF-8"?>
<svg id="_圖層_1" data-name="圖層 1" xmlns="http://www.w3.org/2000/svg" viewBox="0 0 283.46 283.46">
  <defs>
    <style>
      .cls-1 {
        fill: #f5f4f2;
      }
    </style>
  </defs>
  <path class="cls-1" d="M119.76,180.66c-.13.02-.92.32-.95.44-.04,2.74-.04,5.52-.28,8.25-2.09,22.91-7.29,40.5-24.68,55.8-4.01,3.53-13.18,10.45-18.38,12.47-.7.27-3.85,1.21-2.6-.24,2.56-2.13,5.57-4.19,8-6.44,6.91-6.38,12.27-13.59,17.23-21.66,8.87-14.41,8.07-37.94,8.59-54.66.05-1.52-.36-3.09.1-4.65,2.21-.82,5.49-1.38,7.81-.78,6.7,1.75,12.42,1.37,19.39,1.54,3.86.09,7.76.43,11.66.28l-.03-13.12-10.3-.51c-4.61.42-9.31.18-13.96.21-3.48.02-9.51.74-12.81-.05-.91-.22-1.64-.74-1.79-1.7-.16-1.03-.14-6.54.28-7.2.25-.39,1.07-.8,1.51-.9,3.46-.82,9.19-.21,12.82-.18,7.2.05,14.5.28,21.73-.17.84-.05,1.81.51,2.56-.14.15-4.43-.06-8.8-.01-13.25l-23.22.26c-4.66-.08-8.15,2.31-12.79,1.54-.97-.16-1.94-.4-2.85-.77-.46-1.56-.06-3.13-.1-4.65-.46-14.92,0-32.12-4.85-46.33-3.84-11.25-10.52-19.13-18.61-27.4-3.14-3.21-6.62-5.87-9.99-8.93-.3-.27-.67-.4-.56-.91.47-.03.94-.02,1.41.06,3.24.57,11.98,6.85,14.82,9.05,19.7,15.29,26.26,30.57,29.07,55.44.48,4.24.91,8.45.96,12.72l26.71.52v-8.32h-11.4s-.84-.31-.87-.34c-.74-.78-.13-6.17-.35-7.53.07-.29,2.75-.98,3.1-.98h9.39c.13,0,.44-.44.41-.67l-.28-13.28h-8.99c-.16,0-1.4-.4-1.62-.52-1.4-.8-.55-1.96-.55-3.2,0-21.96,32.76-22.36,32.99.05,0,.6.51,1.94.31,2.32-.21.41-2.01,1.34-2.43,1.34h-9.26v13.95h9.79c.54,0,2.85.65,3.03,1.26.24.78.14,6.28-.24,6.89-.12.19-.77.7-.91.7h-11.4c-.49,2.76-.04,5.54,0,8.32l26.55-.27c-.07-.78.23-1.5.28-2.27,1.31-21.36,3.84-39.79,18.76-56.09,5.68-6.2,16.49-15.38,24.36-18.57.96-.39,1.95-.73,3.01-.61.11.52-.26.64-.56.91-3.38,3.07-6.82,5.73-9.99,8.93-2.26,2.28-4.59,4.53-6.64,6.91-17.28,20.06-16.1,41.38-16.85,66.58-.05,1.62.4,3.25-.08,4.89-.99.38-2.03.65-3.08.8-4.33.64-7.92-1.49-12.31-1.57l-23.47-.27c.11,4.45-.22,8.83-.02,13.25.76.65,1.73.09,2.56.14,10.56.66,22.03-.86,32.16.07,1.12.1,3.31.17,3.9,1.19.43.75.45,6.13.28,7.2-.15.96-.88,1.48-1.79,1.7-3.2.77-9.19.08-12.56.06-7.89-.04-15.81.05-23.61.05-.3,0-.62.13-.89.26l-.04,13.11,26.43-.54c2.27-.27,4.62-1.46,6.82-1.52.92-.03,5.22.39,5.61,1.02.06.1.29,1.94.3,2.26.89,16.47-.88,32.62,4.62,48.75,3.82,11.19,12.2,21.73,20.72,29.71,2.49,2.33,5.47,4.19,7.93,6.56.29.28.63.47.53.94-1.08.03-2.21-.27-3.19-.69-2.47-1.07-5.24-3.19-7.49-4.64-15.69-10.11-27.21-23.61-31.79-42.2-2.35-9.56-3.22-19.74-3.93-29.55-.06-.18-.61-.45-.68-.45h-25.89c-.07,2.77-.44,5.56.01,8.3l10-.15c.54.18,1.92.12,2.26.5.41.46.5,6.25.28,6.99-.2.68-2.7,1.26-3.3,1.26h-9.52v13.95h7.65c.18,0,2.44.27,2.63.33s1.45,1.02,1.48,1.17c.09.36-.41,1.64-.42,2.2-.03,1.89.34,2.8-.2,4.89-3.35,12.89-21.25,15.83-29.52,5.9-3.06-3.67-3.06-6.12-3.14-10.6-.01-.61-.52-2.03-.43-2.39.04-.15,1.29-1.12,1.48-1.17s2.45-.33,2.63-.33h7.38l.27-13.95h-9.79c-.54,0-2.85-.65-3.03-1.26-.22-.74-.15-6.57.28-6.99.74-.72,5.76-.3,7.06-.32,1.74-.03,3.51-.46,5.22-.01v-8.32h-25.89ZM145.12,85.69h11.4c.66,0,0-1.44-.17-1.71-2.87-4.69-10.24-3.79-11.23,1.71ZM145.52,219.29c-1,.92.9,3.04,1.73,3.63,2.24,1.6,5.29,1.6,7.54,0,.39-.28,1.61-1.58,1.75-2.01s.22-1.62-.28-1.62h-10.73Z"/>
</svg>