<?xml version="1.0" encoding="UTF-8"?>
<svg id="_圖層_1" data-name="圖層 1" xmlns="http://www.w3.org/2000/svg" viewBox="0 0 283.46 283.46">
  <defs>
    <style>
      .cls-1 {
        fill: #f5f4f2;
      }
    </style>
  </defs>
  <path class="cls-1" d="M145.59,96.3c2.37.43,8.1,1.05,12.65-1.88,3.27-2.1,5.34-5.65,6.15-10.55-1.29-1.47-2.2-3.06-2.2-4.6,0-1.76.47-2.94,1.41-3.52,1.4-.87,3.24.03,3.31.07l-.45.89s-1.42-.69-2.34-.11c-.62.38-.93,1.28-.93,2.67,0,4.65,10.24,10.25,10.34,10.31l-.24.44s0,0,0,0c3.15,1.33,10.49,3.71,17.67,1.01.66-.25.66-1.18.02-1.46-5.03-2.13-19.46-8.88-20.29-16.3-1-9-17-10-17-10,0,0-7.77-.61-10.41,2.71-.21.26-.54.39-.87.29-2.43-.78-12.27-4.57-17.55-15.65-.11-.23-.31-.39-.56-.43-1.68-.26-8.47-.79-15.71,6.19-.27.26-.31.67-.12.99.81,1.32,3.91,4.32,15.33,4.39.25,0,.48.11.62.31,1.08,1.5,5.92,8.03,10.11,10.79.6.39.43,1.32-.28,1.43-1.75.26-4.32.09-6.17-2.45-.23-.32-.21-.76.07-1.04l.03-.03c.29-.29.31-.76.04-1.07l-5.58-6.38c-.25-.29-.67-.36-1-.15-1.5.93-5.55,3.54-6.66,5.31-.24.38-.13.87.26,1.09,3.29,1.93,20.65,12.35,22.46,18.69,1.74,6.09,6.51,7.64,7.72,7.94.07.02.13.05.18.09ZM123.45,53.07c-.07-.18-.3-.32-.45-.3-6.55.16-9.82,2.52-11.19,3.91-.14.14-.14.31-.13.39.02.16.11.29.25.37,5.39,3.03,10.54,1.36,10.59,1.35l.32.95c-.23.08-5.62,1.82-11.4-1.42-.41-.23-.69-.63-.75-1.1-.07-.46.08-.91.4-1.24,1.47-1.5,4.98-4.05,11.88-4.21.57-.03,1.17.35,1.4.92,1.03,2.54,5.38,11.19,18.25,15.67.15.05.31.03.44-.06,1.5-1.03,7.06-4.26,15.72-2.53,9.54,1.91,10.33,8.38,10.4,9.36.5,1,5.73,10.94,19.63,14.64l-.26.97c-15.05-4.01-20.28-15.16-20.33-15.28l-.04-.21c0-.27-.15-6.62-9.6-8.51-8.28-1.65-13.54,1.4-14.96,2.38-.39.27-.88.33-1.33.18-13.27-4.62-17.78-13.6-18.85-16.24ZM140.24,88.49c-2.66-5.31-18.27-17.15-21.37-19.47-.52-.38-.73-1.05-.52-1.62.64-1.74,3.08-2.58,3.19-2.61l.32.95c-.58.19-2.17.93-2.56,2.01-.06.17.04.37.18.47,3.14,2.34,18.91,14.31,21.67,19.82s7.36,5.72,7.55,5.72c.14.01,9.7.86,12.53-6.68.77-2.06.74-3.67-.09-4.8-1.62-2.2-5.78-2.01-5.83-2.01l-.05-1c.19-.01,4.75-.23,6.69,2.41,1.04,1.42,1.12,3.35.22,5.75-2.52,6.71-9.8,7.36-12.5,7.36-.62,0-1-.04-1.02-.04-.16.02-5.3-.07-8.4-6.27Z"/>
  <path class="cls-1" d="M276.37,199.28c-.48,0-.79-.03-.84-.03h-68.58c-5.61,0-10.18-4.57-10.18-10.18v-2.63h1v2.63c0,5.06,4.12,9.18,9.18,9.18h68.62c.1,0,5.34.45,8.44-2.83l.68.64v-20.96c0-.69-.82-1.05-1.32-.57-2.73,2.6-9.52,8.19-18.61,9.73-.05,0-.1.01-.15.01h-82.75c-.12,0-.23-.02-.34-.08-1.67-.82-15.48-8.3-9.84-29.92,5.89-22.6,10.82-31.68.57-63.28-.11-.33.01-.65.24-.85-1.3-.75-4.58-2.75-7.1-5.21-.97,4.79-3.15,8.34-6.52,10.5-3.01,1.93-6.43,2.45-9.21,2.45-1.2,0-2.27-.1-3.16-.22,2.39,4.44,8.81,19.4,2.18,42.6-8,28-4,41-4,41,0,0,7.28,33.51,41.91,34,.43,0,.78.35.78.78v.96c0,1.73-1.4,3.14-3.14,3.14h-9.63c-3.7,0-6.69,3-6.69,6.69v10.73c0,.81,1.08,1.09,1.47.38,1.48-2.67,4.1-6.67,8.29-6.67h-.5v-8h1v8h-.5c4,0,6.73,3.27,8.2,6.3.37.76,1.5.84,1.5,0v-7.68c0-1.73,1.4-3.14,3.14-3.14h10.48c3.7,0,6.69-3,6.69-6.69v-4.35c0-.43.35-.79.79-.79h75.43c.43,0,.79-.35.79-.79v-17.98c-2.68,2.79-6.61,3.12-8.32,3.12ZM197.77,218.4h-1v-9.99c0-5.05-4.11-9.16-9.16-9.16h-5.72c-9.76,0-18.61-5.94-22.03-14.78-2.96-7.64-2.75-15.8-2.69-18.48,0-.31.01-.55.01-.72,0-2.74.92-12.85,3.87-21.23,2.41-6.83,3.24-17.11,3.44-20.09.04-.62.51-1.13,1.13-1.23,2.25-.36,5.84-2.62,8.45-4.61.08-.06.13-.16.14-.26.76-11.38-3.86-21.97-4.79-23.97-.04-.08-.11-.14-.2-.15-.7-.12-1.58-.47-2.2-.75-.12-.05-.25-.01-.34.09-6.14,7.44-11.75,8.57-13.87,8.71-.12,0-.19.08-.22.12-.05.08-.06.18-.03.27,3.52,9.75,2.63,21.03,2.62,21.14l-1-.08c0-.11.88-11.17-2.56-20.72-.14-.39-.09-.81.13-1.16.22-.34.58-.55.99-.58,2-.13,7.27-1.21,13.17-8.35.37-.45,1-.6,1.52-.37.8.36,1.5.6,1.96.67.42.07.76.33.94.72.95,2.04,5.66,12.83,4.88,24.46-.02.39-.22.75-.53.99-1.31,1-5.83,4.31-8.9,4.8-.16.03-.28.15-.29.31-.2,3.02-1.04,13.41-3.49,20.36-2.91,8.25-3.81,18.2-3.81,20.89,0,.18,0,.43-.01.75-.07,2.63-.26,10.64,2.62,18.09,3.27,8.46,11.75,14.14,21.09,14.14h5.72c5.6,0,10.16,4.56,10.16,10.16v9.99Z"/>
</svg>