<?xml version="1.0" encoding="UTF-8"?>
<svg id="_圖層_1" data-name="圖層 1" xmlns="http://www.w3.org/2000/svg" viewBox="0 0 283.46 283.46">
  <defs>
    <style>
      .cls-1 {
        fill: #f5f4f2;
      }
    </style>
  </defs>
  <path class="cls-1" d="M200.67,161.88c1.28-.09,5.74-.36,6.44.61.79,1.1-.06,7.1-.29,8.75-3.1,21.56-19.6,37.38-40.74,41.47-1.75.34-9.61,1.43-10.74.75-.96-.58-.84-4.02-.79-5.07,1.09-23.54,22.76-44.87,46.12-46.5Z"/>
  <path class="cls-1" d="M102.18,161.88c11.11-1.45,26.14,5.81,34.22,13.13,8.98,8.13,17.95,23.8,16.54,36.3-.31,2.79-1.47,2.36-3.88,2.28-20.85-.68-41.34-15.14-46.96-35.51-.99-3.6-2.29-10.67-1.99-14.28.14-1.7.52-1.72,2.07-1.93Z"/>
  <path class="cls-1" d="M152.42,176.75c-11.74-.38-20.46-6.49-26.03-16.54-7.74-13.98-8.56-31.89-7.32-47.5.96-.12,1.8-.32,2.8-.29,16,.47,25.39,25.91,28.08,38.92,1.75,8.46,1.97,16.82,2.48,25.42Z"/>
  <path class="cls-1" d="M173.08,169.92c-5.09,4.38-11.55,6.53-18.26,6.83.49-9.51.85-18.74,3.06-28.03,2.8-11.78,11.41-33.55,24.9-35.95.95-.17,5.08-.78,5.36.1.09.28.26,2.59.3,3.17,1.14,17.34-1.37,41.84-15.37,53.89Z"/>
  <path class="cls-1" d="M170.47,104.85c2.85-1.93,6.73-4.65,10.37-4.55,4.35.11,5.57,6.58,6.27,9.99-1.33.59-2.47-.09-3.87,0-6.63.46-13.23,7.76-16.75,12.89-7.46,10.87-11.39,24.7-11.95,37.83h-1.34c-.46-13.79-4.95-28.65-13.23-39.75-3.34-4.48-9.77-10.84-15.72-10.98-1.84-.04-3.58,1.36-3.31-1.42.22-2.29,2.37-7.7,4.72-8.36,3.56-1,8.64,1.78,11.52,3.81.47.33,2.3,2.26,2.68,1.98.34-1.33,1.79-2.53,2.8-3.48,2.46-2.3,7.8-5.61,11.21-5.61,5.15,0,11.43,5.21,14.44,9.08.7-.5,1.44-.95,2.14-1.42ZM182.5,101.29c-2.69-2.21-9.34,3.07-11.13,5.13-.83.96-2.44,4.57-3.87,2.51-.36-.52-.43-1.55-.75-2.18-1.85-3.61-9.23-9.44-13.38-9-4.56.48-10.94,5.8-12.72,9.98-.4.95.12,1.8-1.46,1.77-1.05-.02-1.85-2.02-2.53-2.82-2.23-2.59-6.9-6.44-10.53-5.74-1.93.37-3.33,6-3.61,7.73.94-.27,1.83-.33,2.81-.27,12.74.69,24.22,23.48,26.95,34.43l2,8.81c1.24-10.92,5.4-22.08,11.79-31.05,4.12-5.78,11.26-12.98,18.9-12.19.67-.67-1.69-6.48-2.48-7.13Z"/>
  <path class="cls-1" d="M153.42,85.52c2.59-.38,4.26,3.28,1.5,4.72-3.38,1.76-5.6-4.11-1.5-4.72Z"/>
  <path class="cls-1" d="M125.66,92.45c3.33-.4,3.94,4.08,1.21,4.7-3.75.85-4.36-4.32-1.21-4.7Z"/>
  <path class="cls-1" d="M181.18,92.46c3.16-.39,3.7,4.31.71,4.74-3.48.51-4.04-4.34-.71-4.74Z"/>
</svg>