<?xml version="1.0" encoding="UTF-8"?>
<svg id="_圖層_1" data-name="圖層 1" xmlns="http://www.w3.org/2000/svg" viewBox="0 0 283.46 283.46">
  <defs>
    <style>
      .cls-1 {
        fill: #f5f4f2;
      }
    </style>
  </defs>
  <path class="cls-1" d="M88.2,117.58c.13-.11,2.06-.36,1.95.49-.21,8.22,1.39,16.38,1.95,24.52,1.15,16.92.17,36.41,2.08,52.83,1.59,13.69,10.16,16.05,22.85,14.23,10.18-1.46,8.84-9.89,8.41-18.04-1.28-24.54-9.65-49.01-15.64-72.61,4.51-5.09,5.57-12.84,9.48-17.83.63-.8-.02-1.8,2.24-1.23l15.38,101.78c1.19,9.24,22.79,11.04,25.37,3.18,2.9-8.82-2.66-38.04-4.78-48.29-3.15-15.28-8.21-30.18-11.49-45.43.02-2.01,9.68-19.93,10.8-19.09l16.67,102.47c-.06,11.28,2.92,29.41-12.3,31.79-11.8,1.84-21.77-2.47-29.83-10.72-3.02,13.85-28.67,13.09-37.62,7.7-7.85-4.73-7.83-24.84-9.47-33.19-3.71,2.34-9.01,9.45-13.2,9.88-3.94.41-22.79-2.42-26.27-4.23-5.69-2.95-3.42-8.06-1.73-13.05,6.04-17.86,22.36-26.37,38.8-32.75l-3.31-17.96,9.67-14.44ZM61.07,173.8c-1.87,2.01-4.05,6.08-3.16,8.81,1.81,5.54,26.47,4.04,27.39,0,.74-3.25-2.58-14.36-1.05-18.96-2-2-20.68,7.45-23.18,10.15Z"/>
  <path class="cls-1" d="M196.05,73.46l1.95.49c-1.06,13.71-1.26,27.44-1.03,41.22.37,21.75,6.93,83.22-4.04,99.81-2.1,3.18-4.23,5.33-4.79.21-1.08-9.84.47-22.18.09-32.44-.67-17.93-3.05-35.98-3.95-53.89-.36-7.16-2.16-30.42-.23-35.5,2.25-5.92,10.12-13.16,12-19.87Z"/>
  <path class="cls-1" d="M88.33,66.74c.87-.53,2.63.01,3.77-.15-.09,5.34-1.52,11.99,6.19,9.62,4.87-1.49,6.4-16.48,8.03-16.46,8.24,18.88,13.02,4.43,14.23-7.86,6.31.98,5.48,14.13,4.81,19.03-.89,6.48-6.64,14.39-13.93,12.14-1.85-.57-2.43-3.26-4.59-2.74-3.41,11.61-18.58,14.69-20.52.4-.34-2.5.11-12.83,2.01-13.99Z"/>
</svg>