<?xml version="1.0" encoding="UTF-8"?>
<svg id="_圖層_1" data-name="圖層 1" xmlns="http://www.w3.org/2000/svg" viewBox="0 0 283.46 283.46">
  <defs>
    <style>
      .cls-1 {
        fill: #f5f4f2;
      }
    </style>
  </defs>
  <path class="cls-1" d="M152.49,106.33c.73,1.06,1.13,2.39,2.05,3.5,8.29,9.96,29.15,15.77,41.61,17.81,11.09,1.82,24.8,2.68,35.92,1.04.67-.1,1.74-1.13,1.61.58-1.05,1.05-2.02,2.6-3.08,3.62s-3.67,2.5-4.43,3.46c-.83,1.05-1.57,4.17-2.28,5.6-13.01,25.95-42.25,45.75-72.32,37.92-15.22-3.97-28.2-16.2-33.7-30.66-1.19-3.12-2.21-6.52-2.97-9.85-1.89-8.22-4.44-24.35-13.88-27.54-1.42-.48-2.82-.19-4.19-.76.24-.42.14-1.01.27-1.4,2.74-8.05,7.11-14.17,15.45-17.4,15.6-6.04,31.04,1.1,39.94,14.07ZM118.62,102.15c-3.65,3.67,2.27,8.1,5.34,4.48,3.02-3.56-2.65-7.2-5.34-4.48ZM221.61,137.57c-.36-.42-3.26,2.64-3.64,2.96-23.53,19.58-63.42,33.04-82.24.43-.41-.71-.69-1.63-1.1-2.33-.16-.27-.18-.68-.56-.19.35,1.67.91,3.46,1.66,4.99,8.82,18.04,28.42,21.6,46.64,17.16,13.85-3.37,26.92-11.13,37.4-20.55.7-.63,2.09-.85,1.85-2.46Z"/>
</svg>