<?xml version="1.0" encoding="UTF-8"?>
<svg id="_圖層_1" data-name="圖層 1" xmlns="http://www.w3.org/2000/svg" viewBox="0 0 283.46 283.46">
  <defs>
    <style>
      .cls-1 {
        fill: #f5f4f2;
      }
    </style>
  </defs>
  <path class="cls-1" d="M198.23,238.93l-2-6.12c-.83-2.15-4.27-8.76-5.98-10.01-.62-.45-1.2-.36-1.72-.68-4.98-3.05-7.72-13.57-8.21-19.11-6.82-2.46-7.56-11.79-5.62-17.77-8.02-3.02-8.45-12.76-5.55-19.7-1.76-.76-3.2-.82-4.48-2.44-3.77-4.77-2.57-13.62-.7-18.99.47-1.34,1.31-2.59,1.71-3.89,1.7-5.5,1.04-8.41,4.43-13.95,2.43-3.96,4.67-4.98,7.58-7.88.79-.79,1.75-4.16,2.66-5.6,2.04-3.23,5.92-6.64,9.8-7.25.67-.11,2.42.06,2.69-.11.17-.11,1.68-2.85,2.17-3.48.35-.45.93-.49,1.28-1.2s.79-4.05.86-5c.29-4.24.1-9.1-1.86-12.91l3.2-.27c-.03,4.41.33,8.78.28,13.2,0,.76-.27,1.4-.29,2.11-.07,2.14.35,5.42-.1,7.35-.94,4.06-9.64,10.27-13.22,12.37-.19.11-.94.19-.52.66.96,1.07,5.36-1.97,6.26-2.67,2.56-2,4.66-4.77,6.81-7.18v19.84c-2.46,3.05-5.42,5.61-8.41,8.12l-5.99,3.6c2.3.63,3.89-.29,5.68-1.51,3.33-2.27,6.11-5.97,8.71-9.01l.15,19.72c-3.85,6.07-8.14,10.62-14.88,13.38-.29.12-.87.05-.73.59.33,1.27,3.94-.59,4.61-.98,4.66-2.72,7.89-7.5,11.11-11.67-.42,6.55.33,13.13.14,19.72-2.05,3.31-4.98,7.23-8.43,9.16-.58.33-3.17,1.18-3.17,1.35-.03,1.72,4.94-1.59,5.31-1.88,2.4-1.87,4.46-4.73,6.42-7.04v18.78c0,.34-2.25,3.25-2.67,3.72-2.03,2.26-4.58,4.27-7.45,5.33,1.16,1.1,3.25-.34,4.24-1.09,2.28-1.73,3.85-4.57,5.89-6.5v46.88Z"/>
  <path class="cls-1" d="M200.36,108.4c2.15,2.47,4.2,5.17,6.81,7.18.9.69,5.3,3.74,6.26,2.67.42-.47-.34-.55-.53-.66-3.59-2.12-12.26-8.24-13.22-12.37-.46-1.95-.02-5.19-.12-7.34-.05-1.14-.49-2.56-.54-3.72-.16-3.78.95-7.75.54-11.6.7.09,2.75-.19,3.08.53.06.13-.91,2.04-1.08,2.66-.97,3.63-.99,10.8-.06,14.45.34,1.35,1.35,1.59,2.18,2.62.4.5,1.36,2.45,1.48,2.53.26.18.9-.18,1.4-.11,4.45.64,8.34,3.39,10.83,7.06,1.18,1.74,1.88,4.74,2.86,5.93.6.72,1.82,1.35,2.52,2.01,3.79,3.6,6.88,7.93,8.27,13.05.6,2.21.63,4.4,1.19,6.53.39,1.5,1.21,2.59,1.67,3.92,2.02,5.81,3.97,18.2-3.21,21.17-.5.21-1.68.15-1.78.63,2.42,6.13,2.71,14.7-3.5,18.61-.51.32-1.97.64-2.08,1.11,1.77,4.94,1.22,13.08-3.23,16.49-.57.43-2.28,1.13-2.43,1.37-.19.3-.67,4.65-.91,5.68-1.02,4.45-3.56,10.76-7.45,13.33-.42.28-.97.24-1.5.63-1.64,1.2-4.86,7.18-5.71,9.21l-2.27,6.92v-47.15l1.87,2.53c1.31,1.64,4.55,5.25,6.59,5.67.4.08,1.69.15,1.67-.34,0-.16-2.37-1.03-2.91-1.35-1.23-.75-7.22-6.41-7.22-7.44v-19.05c1.89,2.4,3.85,5.04,6.27,6.92,1.38,1.07,3.73,2.88,5.46,2.14-.81-.73-1.97-.84-3.01-1.38-2.19-1.14-4.35-3.4-5.89-5.3-3.83-4.75-2.65-4.81-2.55-10.48.06-3.39.05-6.83,0-10.14-.02-1.02,0-2.04,0-3.06,3.09,4.16,6.58,8.98,11.11,11.67.68.4,4.28,2.31,4.61.98.14-.54-.44-.47-.73-.59-6.76-2.78-11.03-7.25-14.88-13.38l.15-19.72c2.6,3.03,5.38,6.74,8.71,9.01,1.8,1.23,3.39,2.14,5.68,1.51l-4.36-2.3c-3.57-2.89-7.14-5.81-10.04-9.41v-19.84Z"/>
  <path class="cls-1" d="M151.57,143.57c.09.1-.18,1.01-.45,1.07-.86.21-4.42.05-5.56,0-1.51-.06-3.15-.47-4.75-.32-.65-.21-.64-1.31,0-1.52,3.58.08,7.2.29,10.76.76Z"/>
  <path class="cls-1" d="M121.35,169.44l10.36.49c1.28.22.63,1.63-.53,1.36l-9.6-.29c-.84,0-.96-1.32-.23-1.56Z"/>
  <path class="cls-1" d="M132.37,215.22c.08.13.02.62-.12.81-.61.83-9.12-.3-10.68-.02-.77,0-.93-1.12-.41-1.48,1.28.13,10.91.21,11.21.69Z"/>
  <path class="cls-1" d="M151.54,216.79c-.5.33-1.51-.15-1.33-.9.46-3.18.19-6.42.54-9.61.14-1.31,1.21-1.32,1.36,0,.21,1.8-.1,7.37-.28,9.34-.02.24-.18,1.1-.29,1.17Z"/>
  <path class="cls-1" d="M121.62,120.17c3.15.28,6.49.05,9.57.74,1.55.35,1.46.9,0,1.1-3,.4-6.57-.39-9.61-.28-1.03-.15-.65-1.09.04-1.55Z"/>
  <path class="cls-1" d="M128.9,193.91c-.86.05-1.66.14-1.62-.93.62-2.84.14-6.26.57-9.04.19-1.19,1.15-1.87,1.33-.3.37,3.29-.4,6.96-.28,10.27Z"/>
  <path class="cls-1" d="M151.55,125.97c-.12.1-.87.04-1.07-.1-.65-.45,0-2.03.01-2.68.09-2.58-.02-5.17.26-7.74.14-1.31,1.21-1.32,1.36,0,.21,1.83-.11,7.05-.28,9.07-.02.24-.22,1.41-.28,1.45Z"/>
  <path class="cls-1" d="M121.62,204.34c2.67-.04,5.57-.01,8.22.23.47.04,3.07.31,3.06.66s-1.63.63-2,.66c-1.15.11-8.61.15-9.19-.13-.53-.25-.86-1.18-.09-1.42Z"/>
  <path class="cls-1" d="M151.83,160.34c.08.08.27,1.92.28,2.25.03,1.11-.27,1.98-.29,2.93-.03,1.3.27,4.83-.13,5.74-.26.59-1.06.47-1.48.1.27-2.37.15-4.78.29-7.16.04-.61.34-3.62.52-3.75.2-.14.75-.18.81-.12Z"/>
  <path class="cls-1" d="M128.51,137.71c.41-.08.6.31.66.67.24,1.34.09,4.88.01,6.4-.03.65-.21,3.33-.32,3.68-.21.66-.95.53-1.31.06-.58-.74,0-1.42.02-2.16.04-1.95.03-4.2.27-6.12.06-.46.28-2.45.67-2.53Z"/>
  <path class="cls-1" d="M140.37,189.91c-.1-.67.13-1.54.91-1.57,2.53.46,5.2.3,7.75.51.46.04,2.46.29,2.54.67.11.55-.52.63-.92.67-3.27.37-6.98-.36-10.28-.28Z"/>
  <path class="cls-1" d="M151.57,147.03c-.04.26.06,1,0,1.06-.38.4-9.64-.31-11.03-.3-.56-.18-.45-.8-.44-1.29l11.47.53Z"/>
  <path class="cls-1" d="M132.37,166.74c-.1.18-.26.71-.31.75-.83.55-8.86-.34-10.48-.22-.8.08-.71-1.07-.36-1.29.47-.3,10.83.31,11.15.76Z"/>
  <path class="cls-1" d="M141.04,137.7c-.93-.26-1.18-1.56.8-1.61,2.39-.07,6.86.28,9.31.58.33.04.63.23.96.24.08.1-.61.8-.67.8h-10.4Z"/>
  <path class="cls-1" d="M151.57,193.64c-3.78,0-7.55.11-11.31-.26-.43-.89-.11-1.24.77-1.35,1.29-.16,5.37.19,6.94.28.58.03,3.35.34,3.48.52.19.26.12.53.12.81Z"/>
  <path class="cls-1" d="M148.34,114.82c.44.57-.31,9.05-.24,10.49-.09.86-.85.75-1.34.22.13-2.67.08-5.56.28-8.21.03-.43.28-2.34.39-2.54.18-.33.86-.04.92.04Z"/>
  <path class="cls-1" d="M146.83,171.19c-.48-.56.15-4.16.21-5.11.1-1.59-.2-3.5.27-5.06.34-1.14.95-.78,1.06.24.18,1.62.08,4.46,0,6.15-.04.87-.15,2.7-.28,3.45s-.85.81-1.27.33Z"/>
  <path class="cls-1" d="M132.37,125.45l-11.46-.26v-1.33c3.77.14,7.68.14,11.35.79l.12.81Z"/>
  <path class="cls-1" d="M132.37,211.76c.86,1.2-2.58.78-2.79.78-2.6,0-5.44.12-8.01-.25-.86-.13-.6-.77-.23-1.35,1.32.05,10.71.37,11.03.82Z"/>
  <path class="cls-1" d="M132.64,137.7c.39.37-.31,9.42-.27,10.79-.09.86-.85.75-1.34.22l.55-11.01c.26.04,1-.06,1.06,0Z"/>
  <path class="cls-1" d="M132.64,182.72l-.27,10.79c-1.48,2.07-1.38-1.04-1.34-2.14.1-2.64.52-5.33.54-7.98.11-.66.44-.74,1.07-.66Z"/>
  <path class="cls-1" d="M148.1,216.55c-.98.06-1.23.06-1.34-.92-.24-2.03.24-7.18.54-9.34.18-1.28.94-1.28,1.08,0,.37,3.27-.36,6.97-.28,10.27Z"/>
  <path class="cls-1" d="M121.57,115.06c-.38-.11-.5-.79-.38-1.17.27-.83,1.42-.18,1.98-.16,1.22.04,9.14.08,9.46.54.15.21-.26.8-.4.8h-10.66Z"/>
  <path class="cls-1" d="M143.97,114.53c.41-.09.6.31.66.67.42,2.36-.14,6.34-.29,8.79-.04.69.8,1.89-.64,1.75-1.17-.12-.41-1.53-.39-2.27.08-2.7-.08-5.31.25-8.01.04-.3.07-.85.41-.92Z"/>
  <path class="cls-1" d="M121.61,162.23l10.1.51c1.11.34.79.96-.25,1.08-2.6.29-5.7-.16-8.28-.3-1.03-.06-2.94.86-1.56-1.29Z"/>
  <path class="cls-1" d="M122.24,193.64c-.32-.06-1.15.12-1.31-.02-.44-.37.41-10.06.51-11.43.25-.11.8.24.8.4v11.05Z"/>
  <path class="cls-1" d="M140.64,183.25c-.05-.99-.22-1.5.92-1.55l10.54.75c.11.25-.24.8-.4.8h-11.06Z"/>
  <path class="cls-1" d="M141.43,114.26c-.07,3.76.32,7.67-.25,11.34-1.08.44-1.26-.03-1.25-1.03.04-3.42.59-6.89.7-10.31h.8Z"/>
  <path class="cls-1" d="M143.57,205.36c.06-.06.61-.03.81.12.69.5.06,7-.03,8.26-.05.69.23,1.76.17,2.16-.11.69-1.39,1.04-1.5,0l.54-10.52Z"/>
  <path class="cls-1" d="M120.91,148.62l.26-9.45.66-2c.47.31.38.71.42,1.18.24,3.09-.2,6.48-.01,9.6-.06.75-.69.72-1.33.66Z"/>
  <path class="cls-1" d="M132.64,159.81v.8c-3.34-.21-7.26.39-10.55.01-1.31-.15-1.31-1.2,0-1.36,3.17-.37,7.29.54,10.55.55Z"/>
  <path class="cls-1" d="M151.57,185.39c.11.86-.14.99-.92,1.08-2.33.27-4.9-.18-7.2-.29-.74-.04-2,.23-2.42.17-.68-.1-1.06-1.36.02-1.5l10.52.55Z"/>
  <path class="cls-1" d="M141.44,216.29c-.32-.06-1.16.11-1.31-.02-.44-.38.52-10.02.51-11.43l.8.67v10.79Z"/>
  <path class="cls-1" d="M121.59,207.26l10.11.5c1.11.34.79.96-.25,1.08-2.58.29-5.98-.09-8.57-.25-.9-.06-2.58.76-1.28-1.33Z"/>
  <path class="cls-1" d="M141.44,171.27c-.32-.06-1.15.12-1.31-.02-.44-.38.52-10.02.51-11.43.25-.11.8.24.8.4v11.05Z"/>
  <path class="cls-1" d="M143.04,171.27l.53-10.25c.34-1.11.96-.79,1.08.25.29,2.59-.15,5.69-.3,8.27-.07,1.17,1.03,1.87-1.31,1.73Z"/>
  <path class="cls-1" d="M125.17,137.7c.55,2.19.09,4.15,0,6.25-.06,1.29.22,3.11,0,4.27-.19,1.06-1.35.91-1.34-.25,0-.48.27-1.02.29-1.6.09-2.9-.07-5.78.26-8.67h.8Z"/>
  <path class="cls-1" d="M140.77,140.63c-.43-.13-.45-.92-.4-1.33,1.44.25,10.81.12,11.2.53.05.06-.03.58,0,.8h-10.8Z"/>
  <path class="cls-1" d="M121.17,117.99v-1.33c3.7.51,7.48.03,11.2.53v.8h-11.2Z"/>
  <path class="cls-1" d="M125.17,182.72v10.52c-.19,1.06-1.35.91-1.35-.25,0-.43.26-.89.28-1.35.11-2.97-.03-5.96.27-8.92h.8Z"/>
</svg>