<?xml version="1.0" encoding="UTF-8"?>
<svg id="_圖層_1" data-name="圖層 1" xmlns="http://www.w3.org/2000/svg" viewBox="0 0 283.46 283.46">
  <defs>
    <style>
      .cls-1 {
        fill: #f5f4f2;
      }
    </style>
  </defs>
  <circle class="cls-1" cx="153.18" cy="102.36" r="38.05"/>
  <circle class="cls-1" cx="94.78" cy="159.88" r="38.05"/>
  <circle class="cls-1" cx="211.59" cy="159.88" r="38.05"/>
  <path class="cls-1" d="M154.59,151.03c.83,0,1.5.64,1.58,1.46.24,2.41,0,4.83-.04,7.24l-.28,8.7-.55,17.4-.55,17.4-.69,17.4h-1.77l-.69-17.4-.55-17.4-.55-17.4-.28-8.7c-.03-2.41-.28-4.83-.04-7.24.08-.82.76-1.46,1.58-1.46h2.81Z"/>
  <path class="cls-1" d="M128.86,189.53c4.84,4.46,8.09,8.27,12.18,13.41,3.97,5.21,8.04,10.73,9.05,17.44,0,0-1.75.25-1.75.25-1.36-6.01-5.67-11.08-9.72-15.64-4.05-4.4-8.56-8.54-13.21-12.28-.37-.3-.43-.84-.12-1.21l2.38-2.85,1.19.87Z"/>
  <path class="cls-1" d="M177.51,189.53c-4.84,4.46-8.09,8.27-12.18,13.41-3.97,5.21-8.04,10.73-9.05,17.44,0,0,1.75.25,1.75.25,1.36-6.01,5.67-11.08,9.72-15.64,4.05-4.4,8.56-8.54,13.21-12.28.37-.3.43-.84.12-1.21l-2.38-2.85-1.19.87Z"/>
</svg>