<?xml version="1.0" encoding="UTF-8"?>
<svg id="_圖層_1" data-name="圖層 1" xmlns="http://www.w3.org/2000/svg" viewBox="0 0 283.46 283.46">
  <defs>
    <style>
      .cls-1 {
        fill: #f5f4f2;
      }
    </style>
  </defs>
  <path class="cls-1" d="M95.72,56.31s13.21,0,19.8,6.61c.86.86,1.89,1.52,3.07,1.83,6.52,1.68,27.83,8.45,26.14,24.56-2,19-26,2-28-4,0,0-2.3-3.61-3.17-8.17-.48-2.53-1.53-4.92-3.15-6.92-3.89-4.81-10.86-12.87-14.68-13.91Z"/>
  <polygon class="cls-1" points="253.12 224.61 140.32 224.61 140.32 222.61 237.32 222.61 202.97 213.77 203.47 211.84 253.12 224.61"/>
  <g>
    <path class="cls-1" d="M120.27,221.44s-3.76-11.37,18.6,0h3.85s-27-13.13-22.45,0Z"/>
    <path class="cls-1" d="M144.89,221.94h-6.14l-.11-.05c-12.11-6.16-16.01-5.3-17.25-4.23-1.41,1.21-.65,3.61-.65,3.63l-.95.32c-.87-2.51-.69-4.34.53-5.42,4.46-3.96,21.87,4.45,22.61,4.81l1.95.95ZM138.99,220.94h1.47c-2.65-1.18-6.32-2.65-9.81-3.66,2.4.84,5.18,2.06,8.34,3.66Z"/>
  </g>
  <g>
    <path class="cls-1" d="M129.27,221.31s-3.76-11.37,18.6,0h3.85s-27-13.13-22.45,0Z"/>
    <path class="cls-1" d="M153.89,221.81h-6.14l-.11-.05c-12.11-6.16-16.01-5.3-17.25-4.23-1.41,1.21-.65,3.61-.65,3.63l-.95.32c-.87-2.51-.69-4.34.53-5.42,4.45-3.95,21.87,4.45,22.61,4.81l1.95.95ZM147.99,220.81h1.47c-2.65-1.18-6.32-2.65-9.81-3.66,2.4.84,5.18,2.06,8.34,3.66Z"/>
  </g>
  <g>
    <path class="cls-1" d="M139.27,221.31s-3.76-11.37,18.6,0h3.85s-27-13.13-22.45,0Z"/>
    <path class="cls-1" d="M163.89,221.81h-6.14l-.11-.05c-12.11-6.16-16.01-5.3-17.25-4.23-1.41,1.21-.65,3.61-.65,3.63l-.95.32c-.87-2.51-.69-4.34.53-5.42,4.46-3.95,21.87,4.45,22.61,4.81l1.95.95ZM157.99,220.81h1.47c-2.65-1.18-6.32-2.65-9.81-3.66,2.4.84,5.18,2.06,8.34,3.66Z"/>
  </g>
  <path class="cls-1" d="M282.79,197.71c-11.63-.63-23.03-3.2-34.13-6.58-3.69-1.14-7.33-2.36-10.94-3.75l.47-1.24c7.21,2.46,14.64,4.41,22.1,5.94,7.42,1.51,14.98,2.5,22.54,2.63v-59.04s-51.27,16.04-65.94,51.09c0,0-44.67,4.05-55.67-34.95,0,0-3.78-35.57-10.69-54.7-.26-.73-1.35-.42-1.19.34,1.66,7.99,3.33,22.18.88,42.35-3.61,29.8,11,45,27,53s79.22,35.33,105.61,30.16v-26.76c-.02.75-.04,1.5-.04,1.5Z"/>
  <g>
    <path class="cls-1" d="M164.72,83.81c0-3.87,3.13-7,7-7s7,3.13,7,7h-29.03"/>
    <path class="cls-1" d="M179.22,84.31h-29.53v-1h14.55c.26-3.9,3.52-7,7.48-7s7.5,3.36,7.5,7.5v.5ZM165.24,83.31h12.96c-.26-3.35-3.07-6-6.48-6s-6.22,2.65-6.48,6Z"/>
  </g>
  <g>
    <path class="cls-1" d="M182.75,85.81c0-3.87,3.13-7,7-7s7,3.13,7,7h-29.03"/>
    <path class="cls-1" d="M197.25,86.31h-29.53v-1h14.55c.26-3.9,3.52-7,7.48-7s7.5,3.36,7.5,7.5v.5ZM183.27,85.31h12.96c-.26-3.35-3.07-6-6.48-6s-6.22,2.65-6.48,6Z"/>
  </g>
  <g>
    <path class="cls-1" d="M200.78,87.81c0-3.87,3.13-7,7-7s7,3.13,7,7h-29.03"/>
    <path class="cls-1" d="M215.28,88.31h-29.53v-1h14.55c.26-3.9,3.52-7,7.48-7s7.5,3.36,7.5,7.5v.5ZM201.3,87.31h12.96c-.26-3.35-3.07-6-6.48-6s-6.22,2.65-6.48,6Z"/>
  </g>
</svg>