<?xml version="1.0" encoding="UTF-8"?>
<svg id="_圖層_1" data-name="圖層 1" xmlns="http://www.w3.org/2000/svg" viewBox="0 0 283.46 283.46">
  <defs>
    <style>
      .cls-1 {
        fill: #f5f4f2;
      }
    </style>
  </defs>
  <path class="cls-1" d="M186.45,103.81c51.74-3.12,86.16,53.61,58.56,97.84-25.87,41.44-86.86,40-110.57-2.72-22.8-41.07,5.34-92.31,52.01-95.12ZM225.53,115.4c-31.19-21.51-74.93-9.44-91.62,24.24-11.33,22.88-7.72,51.15,9.33,70.13,21.56,23.99,58.76,8.73,55.98-23.06-1.32-15.03-13.65-19.37-17.29-32.61-7.2-26.23,18.6-48.65,43.6-38.69ZM213.53,135.91c-12.26.98-8.62,20.18,3.38,16.13,9.04-3.05,6.03-16.88-3.38-16.13Z"/>
  <path class="cls-1" d="M166.53,181.83c12.78-2.02,13.76,18.89-.26,16.85-9.02-1.31-8.98-15.4.26-16.85Z"/>
</svg>