<?xml version="1.0" encoding="UTF-8"?>
<svg id="_圖層_1" data-name="圖層 1" xmlns="http://www.w3.org/2000/svg" viewBox="0 0 283.46 283.46">
  <defs>
    <style>
      .cls-1 {
        fill: #f5f4f2;
      }
    </style>
  </defs>
  <path class="cls-1" d="M66.9,257.93c-2.47-1.84-4.82-5.35-7.21-7.05-4.99-3.54-9.86-4.36-14.89-9.4-14.36-14.41-20.57-34.91-12.25-54.18.74-1.7,6.22-9.42,6.09-10.11-.41-2.17-3.26-1.87-4.29-2.38-11.16-5.46-19.41-12.98-24.86-24.33-4.25-8.84-5.37-26.16-2.16-35.16.5-1.41,2.87-4.42,3.32-5.79,1.26-3.8.67-9,1.65-12.32.63-2.15,3.72-8,4.96-10.22,10.29-18.41,31.11-28.59,52.18-25.61,1.87.26,3.15,2.06,5.18.99.95-.69,1.51-9.18,1.92-10.83,2.48-10.04,9.98-20.52,18.46-26.45,7.66-5.37,13.06-6.12,21.66-8.12,1.32-.31,1.9-1.5,3.73-1.73,5.95-.76,10.02,1.46,14.47,1.68,2.36.12,7.06-1.46,9.86-1.65,21.08-1.44,46.2,13.81,51.66,35.16.46,1.8,1.33,12.04,2.03,12.54,1.66,1.19,5.66-1.24,7.68-1.51,24.08-3.15,45.77,9.85,55.33,32.01,2.44,5.67,1.12,9.23,2.26,14.13.72,3.08,4.25,7.45,5.15,11.25.65,2.75.81,11.88.68,15.09-.7,16.91-12.73,34.27-28.57,40.71-1.22.49-7.13,1.72-7.28,2.45l7.13,12.9c7.01,20.73-.92,40.51-16.78,53.95-4.57,3.87-4.85,2.82-9.39,5.18-4.71,2.45-7.75,8.14-13.33,10.96-15.18,7.64-29.29,9.22-45.82,3.7-7.42-2.48-13.67-8.04-19.26-13.38-5.68,4.73-10.53,9.59-17.51,12.71-14.96,6.69-38.6,4.64-51.81-5.2ZM170.92,30.64c-12.43-11.27-31.71-11.29-47.46-9.91-16.44,1.45-33.46,19.65-35.46,35.58-.42,3.37.87,11.51-.96,13.61-2.14,2.46-4.97,1.23-6.41,2.09-.8.48-.79,2.05-1.34,2.6-1.38,1.36-7.13.4-9.12,0-11.53-2.33-16.51-2.15-27.76,1.68-20.78,7.07-26.35,22.35-29.81,42.45-2.83,16.45,5.56,32.55,19.77,41.65,3.76,2.41,7.55,3.15,11.4,4.39,3.5,1.12,8.36,1.58,8.84,5.79.09.77-.47,9.48-.63,10.03-.45,1.56-5.61,6.73-6.81,8.98-7.26,13.57-6.84,33.01,2.18,45.71,4.74,6.67,23.01,18.99,30.86,21.37,15.32,4.64,35.19-.41,46.18-12.14,5.39-5.76,4.8-10.2,14.89-8.85,3.59.48,6.03,6.43,8.38,8.93,9.48,10.07,27.15,15.34,40.72,13.52s34.65-17.75,40.27-29.56c5.4-11.33,4.05-28.26-2.04-38.94-2.37-4.17-7.67-7.86-6.04-12.86.39-1.19,1.88-2.01,2.06-2.82.28-1.2-.95-2.75-.4-4.6.88-2.99,4-2.49,5.99-3.14,4-1.3,7.98-2.39,11.83-4.57,25.14-14.24,26.97-36.95,17.58-61.94-7.32-19.49-30.11-29.11-49.8-26.15-2.39.36-7,2.5-9.12,2.39-2.43-.13-3.96-3.77-4.93-4.1-1.84-.62-3.82.55-6.01-.67-3.59-2.01-1.64-9.38-2.13-13.06-.27-2.08-2.23-9.34-3.19-11.39-1.69-3.6-8.72-13.5-11.56-16.07Z"/>
  <path class="cls-1" d="M143.66,108.91c.32.41.11,1.53.46,2.25s1.62,1.18,1.46,2.09-3.4,2.84-3.95,4.6c-.41,1.34-.8,5.89-.9,7.6-.65,10.67.29,21.88.32,32.52.55,1.11,2.96,1.76,4.19,1.75.93,0,6.73-1.53,7.8-1.92,6.38-2.35,16.46-9.18,20.82-14.4,1.52-1.82,2.37-4.01,3.94-5.78-2.11-.67-4.49-.9-2.46-3.68,1.98-2.72,12.68-4.61,15.98-3.76.3.08,3.49,1.85,3.53,2.05.55,2.48-2.09,3.09-2.75,4.51-4.6,9.85-10.66,13.54-19.73,18.53-4.29,2.36-9.84,4.77-15.09,6.16-2.94.78-9.8,2.5-12.44,1.88-3.56-.84-3.22-4.41-4.05,2.28-.74,6-2.72-2.1-4.57-2.15-1.2,7.4-3.06,4.14-2.74-1.21-1.89-.66-3.23.95-4.58,1.19-2.79.48-9.59-1.02-12.57-1.83-3.84-1.05-10.98-4.04-15.16-6.21-4.45-2.32-13.36-8.82-16.51-12.63-2.23-2.7-2.58-6.34-5.1-8.88-1.21-3.45,6.72-3.96,9.2-3.78,1.63.12,8.84,2.53,9.81,3.6,3.02,3.32-2.56,2.7-2.12,4.55.07.28,2.91,3.88,3.42,4.51,5.57,6.9,18.21,15.11,26.66,16.43,2.92.45,6.53.75,6.98-2.67.72-5.39.75-25.7,0-31.03-.19-1.36-1.06-2.07-1.22-3.03-.27-1.7.32-3.7-.15-5.31-.42-1.4-3.62-2.94-3.41-4.24.03-.18,1.32-3.3,1.43-3.45,1.79-2.43,11.92-2.52,13.5-.49Z"/>
  <path class="cls-1" d="M129.5,177.06c-.4.47-2.36,2.72-2.55,2.77-.99.26-7.69.2-9,.03-4.32-.57-3.55-5.33.61-6.74,2.05-.69,3.65-.28,5.35-.72,1.53-.4,7.18-5.09,8.25-1.89s-.94,4.57-2.67,6.56Z"/>
  <path class="cls-1" d="M145.27,177.74c-2.1-1.73-4.19-4.28-3.2-7.24s6.42,1.57,7.62,1.91c1.53.44,3.28-.12,5.07.4,2.68.77,5.43,2.72,3.92,5.8-.82,1.67-8.49,1.55-10.31,1.2-1.06-.2-2.24-1.37-3.09-2.07Z"/>
</svg>