<?xml version="1.0" encoding="UTF-8"?>
<svg id="_圖層_1" data-name="圖層 1" xmlns="http://www.w3.org/2000/svg" viewBox="0 0 283.46 283.46">
  <defs>
    <style>
      .cls-1 {
        fill: #f5f4f2;
      }
    </style>
  </defs>
  <path class="cls-1" d="M124.28,123.69l-39.36-40.33c-2.5-2.56-4.2-5.82-4.77-9.35-.93-5.79-.26-14.36,8.97-20.94,12.05-8.59,21.19-3.74,24.58-1.25.82.61.97,1.77.35,2.58l-1.26,1.63c-.61.78-1.72.95-2.52.36-3.42-2.52-12.78-7.67-22.78,1.95,0,0-.47.48-1.11,1.38-4.8,6.72-4.09,15.94,1.51,22.02l37.52,40.81c.17.18.17.46,0,.65l-.4.46c-.19.22-.52.23-.72.02Z"/>
  <path class="cls-1" d="M116.43,136.36l-51.8-22.2c-3.29-1.41-6.1-3.77-7.98-6.81-3.08-4.99-5.74-13.16.27-22.78,7.84-12.55,18.15-11.56,22.23-10.56.99.25,1.58,1.27,1.31,2.25l-.54,1.99c-.26.96-1.23,1.53-2.19,1.29-4.12-1.02-14.74-2.2-20.3,10.52,0,0-.25.63-.5,1.7-1.87,8.05,2.32,16.29,9.82,19.77l50.29,23.35c.23.11.34.36.26.6l-.19.58c-.09.27-.39.41-.66.3Z"/>
  <path class="cls-1" d="M112.13,152.34l-56.35-.69c-3.58-.04-7.08-1.14-9.98-3.24-4.75-3.43-10.34-9.96-8.47-21.15,2.44-14.6,12.34-17.63,16.5-18.26,1.01-.15,1.94.57,2.07,1.58l.26,2.05c.12.98-.55,1.89-1.53,2.03-4.2.64-14.46,3.61-14.73,17.49,0,0,0,.67.19,1.76,1.36,8.15,8.38,14.16,16.63,14.5l55.39,2.33c.25.01.45.21.47.46l.04.61c.02.29-.21.53-.5.53Z"/>
  <path class="cls-1" d="M115.55,166.85l-52.32,20.93c-3.32,1.33-6.98,1.65-10.46.83-5.71-1.35-13.36-5.25-15.91-16.3-3.33-14.42,4.66-21.01,8.25-23.18.87-.53,2.01-.22,2.52.67l1.02,1.79c.49.86.21,1.95-.63,2.46-3.64,2.19-11.98,8.87-6.92,21.79,0,0,.27.62.85,1.56,4.37,7.01,13.16,9.87,20.92,7.03l52.07-19.05c.23-.09.5.02.61.24l.27.55c.13.26,0,.57-.26.67Z"/>
  <path class="cls-1" d="M124.88,179.79l-40.33,39.36c-2.56,2.5-5.82,4.2-9.35,4.77-5.79.93-14.36.26-20.94-8.97-8.59-12.05-3.74-21.19-1.25-24.58.61-.82,1.77-.97,2.58-.35l1.63,1.26c.78.61.95,1.72.36,2.52-2.52,3.42-7.67,12.78,1.95,22.78,0,0,.48.47,1.38,1.11,6.72,4.8,15.94,4.09,22.02-1.51l40.81-37.52c.18-.17.46-.17.65,0l.46.4c.22.19.23.52.02.72Z"/>
  <path class="cls-1" d="M137.55,187.63l-22.2,51.8c-1.41,3.29-3.77,6.1-6.81,7.98-4.99,3.08-13.16,5.74-22.78-.27-12.55-7.84-11.56-18.15-10.56-22.23.25-.99,1.27-1.58,2.25-1.31l1.99.54c.96.26,1.53,1.23,1.29,2.19-1.02,4.12-2.2,14.74,10.52,20.3,0,0,.63.25,1.7.5,8.05,1.87,16.29-2.32,19.77-9.82l23.35-50.29c.11-.23.36-.34.6-.26l.58.19c.27.09.41.39.3.66Z"/>
  <path class="cls-1" d="M154.15,190.79l-.69,56.35c-.04,3.58-1.14,7.08-3.24,9.98-3.43,4.75-9.96,10.34-21.15,8.47-14.6-2.44-17.63-12.34-18.26-16.5-.15-1.01.57-1.94,1.58-2.07l2.05-.26c.98-.12,1.89.55,2.03,1.53.64,4.2,3.61,14.46,17.49,14.73,0,0,.67,0,1.76-.19,8.15-1.36,14.16-8.38,14.5-16.63l2.33-55.39c.01-.25.21-.45.46-.47l.61-.04c.29-.02.53.21.53.5Z"/>
  <path class="cls-1" d="M168.66,187.38l20.93,52.32c1.33,3.32,1.65,6.98.83,10.46-1.35,5.71-5.25,13.36-16.3,15.91-14.42,3.33-21.01-4.66-23.18-8.25-.53-.87-.22-2.01.67-2.52l1.79-1.02c.86-.49,1.95-.21,2.46.63,2.19,3.64,8.87,11.98,21.79,6.92,0,0,.62-.27,1.56-.85,7.01-4.37,9.87-13.16,7.03-20.92l-19.05-52.07c-.09-.23.02-.5.24-.61l.55-.27c.26-.13.57,0,.67.26Z"/>
  <path class="cls-1" d="M181.64,177.37l39.36,40.33c2.5,2.56,4.2,5.82,4.77,9.35.93,5.79.26,14.36-8.97,20.94-12.05,8.59-21.19,3.74-24.58,1.25-.82-.61-.97-1.77-.35-2.58l1.26-1.63c.61-.78,1.72-.95,2.52-.36,3.42,2.52,12.78,7.67,22.78-1.95,0,0,.47-.48,1.11-1.38,4.8-6.72,4.09-15.94-1.51-22.02l-37.52-40.81c-.17-.18-.17-.46,0-.65l.4-.46c.19-.22.52-.23.72-.02Z"/>
  <path class="cls-1" d="M189.48,164.7l51.8,22.2c3.29,1.41,6.1,3.77,7.98,6.81,3.08,4.99,5.74,13.16-.27,22.78-7.84,12.55-18.15,11.56-22.23,10.56-.99-.25-1.58-1.27-1.31-2.25l.54-1.99c.26-.96,1.23-1.53,2.19-1.29,4.12,1.02,14.74,2.2,20.3-10.52,0,0,.25-.63.5-1.7,1.87-8.05-2.32-16.29-9.82-19.77l-50.29-23.35c-.23-.11-.34-.36-.26-.6l.19-.58c.09-.27.39-.41.66-.3Z"/>
  <path class="cls-1" d="M193.78,148.72l56.35.69c3.58.04,7.08,1.14,9.98,3.24,4.75,3.43,10.34,9.96,8.47,21.15-2.44,14.6-12.34,17.63-16.5,18.26-1.01.15-1.94-.57-2.07-1.58l-.26-2.05c-.12-.98.55-1.89,1.53-2.03,4.2-.64,14.46-3.61,14.73-17.49,0,0,0-.67-.19-1.76-1.36-8.15-8.38-14.16-16.63-14.5l-55.39-2.33c-.25-.01-.45-.21-.47-.46l-.04-.61c-.02-.29.21-.53.5-.53Z"/>
  <path class="cls-1" d="M190.37,134.21l52.32-20.93c3.32-1.33,6.98-1.65,10.46-.83,5.71,1.35,13.36,5.25,15.91,16.3,3.33,14.42-4.66,21.01-8.25,23.18-.87.53-2.01.22-2.52-.67l-1.02-1.79c-.49-.86-.21-1.95.63-2.46,3.64-2.19,11.98-8.87,6.92-21.79,0,0-.27-.62-.85-1.56-4.37-7.01-13.16-9.87-20.92-7.03l-52.07,19.05c-.23.09-.5-.02-.61-.24l-.27-.55c-.13-.26,0-.57.26-.67Z"/>
  <path class="cls-1" d="M181.03,121.28l40.33-39.36c2.56-2.5,5.82-4.2,9.35-4.77,5.79-.93,14.36-.26,20.94,8.97,8.59,12.05,3.74,21.19,1.25,24.58-.61.82-1.77.97-2.58.35l-1.63-1.26c-.78-.61-.95-1.72-.36-2.52,2.52-3.42,7.67-12.78-1.95-22.78,0,0-.48-.47-1.38-1.11-6.72-4.8-15.94-4.09-22.02,1.51l-40.81,37.52c-.18.17-.46.17-.65,0l-.46-.4c-.22-.19-.23-.52-.02-.72Z"/>
  <path class="cls-1" d="M168.36,113.43l22.2-51.8c1.41-3.29,3.77-6.1,6.81-7.98,4.99-3.08,13.16-5.74,22.78.27,12.55,7.84,11.56,18.15,10.56,22.23-.25.99-1.27,1.58-2.25,1.31l-1.99-.54c-.96-.26-1.53-1.23-1.29-2.19,1.02-4.12,2.2-14.74-10.52-20.3,0,0-.63-.25-1.7-.5-8.05-1.87-16.29,2.32-19.77,9.82l-23.35,50.29c-.11.23-.36.34-.6.26l-.58-.19c-.27-.09-.41-.39-.3-.66Z"/>
  <path class="cls-1" d="M151.77,110.27l.69-56.35c.04-3.58,1.14-7.08,3.24-9.98,3.43-4.75,9.96-10.34,21.15-8.47,14.6,2.44,17.63,12.34,18.26,16.5.15,1.01-.57,1.94-1.58,2.07l-2.05.26c-.98.12-1.89-.55-2.03-1.53-.64-4.2-3.61-14.46-17.49-14.73,0,0-.67,0-1.76.19-8.15,1.36-14.16,8.38-14.5,16.63l-2.33,55.39c-.01.25-.21.45-.46.47l-.61.04c-.29.02-.53-.21-.53-.5Z"/>
  <path class="cls-1" d="M137.26,113.68l-20.93-52.32c-1.33-3.32-1.65-6.98-.83-10.46,1.35-5.71,5.25-13.36,16.3-15.91,14.42-3.33,21.01,4.66,23.18,8.25.53.87.22,2.01-.67,2.52l-1.79,1.02c-.86.49-1.95.21-2.46-.63-2.19-3.64-8.87-11.98-21.79-6.92,0,0-.62.27-1.56.85-7.01,4.37-9.87,13.16-7.03,20.92l19.05,52.07c.09.23-.02.5-.24.61l-.55.27c-.26.13-.57,0-.67-.26Z"/>
  <path class="cls-1" d="M130.65,129.04c-.59-.12-1-.66-.95-1.25.21-2.43,1.44-7.45,5.94-9.95,5.07-2.82,11.01.54,14.2,3.26.47.4.55,1.09.19,1.59l-1.06,1.49c-.42.59-1.27.67-1.79.16-2.09-2.04-5.04-6-11.04-4-3.84,1.28-5.05,5.62-5.08,7.58-.01.73.3,1.27-.41,1.12h0Z"/>
  <path class="cls-1" d="M121.71,150.84c-.5.33-1.17.24-1.56-.22-1.57-1.87-4.25-6.29-2.83-11.24,1.59-5.58,8.17-7.41,12.35-7.73.61-.05,1.16.38,1.26.99l.3,1.8c.12.71-.42,1.37-1.15,1.38-2.92.03-7.81-.68-10.64,4.98-1.81,3.62.4,7.54,1.77,8.95.51.53,1.11.68.5,1.09h0Z"/>
  <path class="cls-1" d="M130.73,172.85c-.12.59-.66,1-1.25.95-2.43-.21-7.45-1.44-9.95-5.94-2.82-5.07.54-11.01,3.26-14.2.4-.47,1.09-.55,1.59-.19l1.49,1.06c.59.42.67,1.27.16,1.79-2.04,2.09-6,5.04-4,11.04,1.28,3.84,5.62,5.05,7.58,5.08.73.01,1.27-.3,1.12.41h0Z"/>
  <path class="cls-1" d="M152.53,181.79c.33.5.24,1.17-.22,1.56-1.87,1.57-6.29,4.25-11.24,2.83-5.58-1.59-7.41-8.17-7.73-12.35-.05-.61.38-1.16.99-1.26l1.8-.3c.71-.12,1.37.42,1.38,1.15.03,2.92-.68,7.81,4.98,10.64,3.62,1.81,7.54-.4,8.95-1.77.53-.51.68-1.11,1.09-.5h0Z"/>
  <path class="cls-1" d="M174,172.31c.59.12,1,.66.95,1.25-.21,2.43-1.44,7.45-5.94,9.95-5.07,2.82-11.01-.54-14.2-3.26-.47-.4-.55-1.09-.19-1.59l1.06-1.49c.42-.59,1.27-.67,1.79-.16,2.09,2.04,5.04,6,11.04,4,3.84-1.28,5.05-5.62,5.08-7.58.01-.73-.3-1.27.41-1.12h0Z"/>
  <path class="cls-1" d="M182.94,150.51c.5-.33,1.17-.24,1.56.22,1.57,1.87,4.25,6.29,2.83,11.24-1.59,5.58-8.17,7.41-12.35,7.73-.61.05-1.16-.38-1.26-.99l-.3-1.8c-.12-.71.42-1.37,1.15-1.38,2.92-.03,7.81.68,10.64-4.98,1.81-3.62-.4-7.54-1.77-8.95-.51-.53-1.11-.68-.5-1.09h0Z"/>
  <path class="cls-1" d="M173.93,128.5c.12-.59.66-1,1.25-.95,2.43.21,7.45,1.44,9.95,5.94,2.82,5.07-.54,11.01-3.26,14.2-.4.47-1.09.55-1.59.19l-1.49-1.06c-.59-.42-.67-1.27-.16-1.79,2.04-2.09,6-5.04,4-11.04-1.28-3.84-5.62-5.05-7.58-5.08-.73-.01-1.27.3-1.12-.41h0Z"/>
  <path class="cls-1" d="M152.13,119.56c-.33-.5-.24-1.17.22-1.56,1.87-1.57,6.29-4.25,11.24-2.83,5.58,1.59,7.41,8.17,7.73,12.35.05.61-.38,1.16-.99,1.26l-1.8.3c-.71.12-1.37-.42-1.38-1.15-.03-2.92.68-7.81-4.98-10.64-3.62-1.81-7.54.4-8.95,1.77-.53.51-.68,1.11-1.09.5h0Z"/>
  <path class="cls-1" d="M163.39,150.18c-.53-.53-1.23-.81-1.98-.84,1.18-.56,2-1.9,2-3.48,0-2.07-1.44-3.75-3.22-3.75-.53,0-1.03.15-1.47.42-.03-.94-.44-1.92-1.22-2.7-1.47-1.47-3.67-1.63-4.93-.38-.53.53-.81,1.23-.84,1.98,0,0-1.92-2.01-3.48-2.01-2.07,0-3.75,1.44-3.75,3.22,0,.84.38,1.61,1,2.19,0,0-2.66.02-3.73,1.09-1.47,1.47-1.63,3.67-.38,4.93.52.52,1.94.86,1.94.86-1.15.57-1.96,1.9-1.96,3.46,0,2.07,1.44,3.75,3.22,3.75.53,0,1.47-.42,1.47-.42.03.94.44,1.92,1.22,2.7,1.47,1.47,3.67,1.63,4.93.38.53-.53.81-1.23.84-1.98.56,1.18,1.9,2,3.48,2,2.07,0,3.75-1.44,3.75-3.22,0-.84-.38-1.61-1-2.18,0,0,2.66-.02,3.73-1.09,1.47-1.47,1.63-3.67.38-4.93ZM152.4,152.01c-.83,0-1.5-.67-1.5-1.5s.67-1.5,1.5-1.5,1.5.67,1.5,1.5-.67,1.5-1.5,1.5Z"/>
  <g>
    <circle class="cls-1" cx="169.79" cy="150.51" r="1.37"/>
    <circle class="cls-1" cx="135" cy="150.51" r="1.37"/>
    <circle class="cls-1" cx="152.4" cy="133.12" r="1.37"/>
    <circle class="cls-1" cx="152.4" cy="167.91" r="1.37"/>
    <circle class="cls-1" cx="164.7" cy="162.81" r="1.37"/>
    <circle class="cls-1" cx="140.1" cy="138.21" r="1.37"/>
    <circle class="cls-1" cx="164.7" cy="138.21" r="1.37"/>
    <circle class="cls-1" cx="140.1" cy="162.81" r="1.37"/>
  </g>
</svg>