<?xml version="1.0" encoding="UTF-8"?>
<svg id="_圖層_1" data-name="圖層 1" xmlns="http://www.w3.org/2000/svg" viewBox="0 0 283.46 283.46">
  <defs>
    <style>
      .cls-1 {
        fill: #f5f4f2;
      }
    </style>
  </defs>
  <path class="cls-1" d="M113.65,179.89c.51,1.71,6.07,5.97,7.73,7.15,3.35,2.37,7.16,4.62,11.19,5.6,1.81.44,5.81.47,7.02,1,.75.33,2.23,3.01,3.04,3.83,3.21,3.26,11.24,9,15.85,8.98,4.24-.01,11.47-5.1,14.51-8.04.88-.85,3.71-4.65,3.99-4.78.84-.41,5.6-.63,7.34-1.06,2.46-.61,5.09-1.75,7.29-3.02,4.2-2.42,9.04-6.21,11.71-10.23-1.72.37-4.22.35-5.81.87-2.63.86-5.65,3.91-9.54,4.96-3.48.94-6.36.1-9.19.74-.95.21-3.72,2.28-5.1,2.92-12.22,5.64-20.05,5.12-32.07-.64-1.21-.58-2.51-2-3.84-2.27-1.83-.38-4.11.1-6.02-.09-3.25-.32-9.53-2.86-11.64-5.34-1.51-.48-4.3-.92-5.94-1.13-.52-.07-.72-.04-.54.55Z"/>
  <path class="cls-1" d="M269.51,107.99c-8.99-11.72-20.92-12.84-34.28-14.57-3.27-.42-8.28-.91-10.53-3.21-2.51-2.57-4.09-6.09-7.14-8.51-12.44-9.87-34.54-16.28-50.13-12.48-2.35.57-7.45,3.27-9.29,3.23-1.82-.04-6.76-2.71-9.32-3.29-16.25-3.69-42.59,3.54-53.66,16.33-1.27,1.47-2.48,4.09-4.18,5.55-2.8,2.41-17.34,2.69-22.02,3.74-18.47,4.16-33.32,21.02-27.26,40.64,4.84,15.67,24.17,24.74,39.66,25.22,1.6.05,5.82-.84,6.59-.53.32.12,3.84,4.16,4.68,4.91,5.03,4.5,14.07,11.24,20.53,13.05,1.64.46,5.91.6,6.85,1.75.18.22.05.6.1.66,3.76,1.2,6.18,3.74,10.88,4.19,2,.19,4.62-.32,6.47.02.94.17,3.31,1.83,4.53,2.34,13.41,5.53,20.75,5.1,33.98-.49,1.05-.44,2.06-1.54,3.19-1.77,5.5-1.13,8.05.66,14.23-2.56,1.43-.74,3.47-2.75,4.48-3.15,1.55-.62,4.2-.58,6.09-1.17,6-1.87,15.27-8.57,19.96-12.86.88-.81,4.28-4.83,4.58-4.99.31-.17,5.66.65,7.05.59,26.91-1.24,54.31-26.11,33.94-52.63ZM167.94,145.71c-.61.16-2.88-1.45-3.84-1.76-3.11-1-7.53-1.04-10.71-.24-1.09.27-4.51,2.04-4.77,1.99-.52-.1-2.28-1.97-2.95-2.4-2.5-1.6-5.73-2.95-8.65-3.56-1.63-.34-5.1.63-3.95-2.2,1.23-3,7.05-5.65,10.15-5.9,1.39-.11,3.71.4,4.52.27,1.37-.22,4.77-3.18,8.17-3.61,2.63-.34,5.31-.07,7.81.77,1.43.48,4.57,2.78,5.11,2.84,4.12.47,5.39-.98,10.03,1.48,1.6.85,7.41,5.38,3.58,6.17-5.45,1.13-7.54.89-12.44,4.35-.62.43-1.61,1.69-2.05,1.8ZM264.53,135.02c-4.6,11.21-16.47,19.12-28.24,20.99-1.7.27-6.28.12-7.5.8-.58.32-.44,1.16-.84,1.54-.48.45-1.22.3-1.69.6-2.18,1.41-3.49,3.38-5.37,4.93-11.09,9.12-29.83,19.95-43.74,10.72-9.26-6.14-9.98-17.48-1.64-24.81,5.61-4.93,11.77-.45,13.13,5.88.61,2.83-.54,5.26,3.82,5.72,6.68.71,14.56-5.4,17.57-11.05.95-1.8,1.24-3.41,2.08-5.17,7.05-.73,15.16-3.2,20.19-8.43,6.43-6.69.77-14.72-5.33-19.01-8-5.62-16.53-6.25-26.13-6.34-.63,0-1.42.39-1.85.31-.52-.1-2.35-2.68-3.09-3.35-8.91-8.21-25.89-9.42-35.94-3.11-2.64,1.66-3.99-.92-6.63-2.02-10.85-4.55-28.69-1.59-35.7,8.51-10.85-1.44-26.93,1.65-33.51,11.17-9.56,13.81,9.53,21.32,20.39,22.28.89,1.06.73,2.44,1.25,3.72,2.56,6.36,11.62,13.5,18.75,12.47,4.12-.59,2.91-3.41,3.6-6.32.25-1.04,1.05-2.82,1.65-3.7,7.61-11.2,21.4,6.13,15.79,16.55-10.01,18.59-35.71,7.8-48.05-2.37-1.77-1.46-5.43-5.87-7.12-6.61-1.66-.73-1.67.63-2.54-2.13-10.04-.71-18.9-2.88-26.64-9.52-22.79-19.53-7.76-50.33,19.82-51.91,6.42-.37,13.28,2.38,18.54-2.45,2.14-1.97,3.31-5.07,5.51-7.08,11.13-10.19,32.96-19.1,47.47-11.96,1.66.82,2.44,1.92,3.74,2.75,3.26,2.06,4.67-.93,7.37-2.42,13.78-7.61,38.9,1.57,48.62,12.65.98,1.12,1.23,1.82,1.99,2.78,7.43,9.33,10.78,5.17,20.97,5.74,19.84,1.11,37.66,19.34,29.32,39.66Z"/>
</svg>