<?xml version="1.0" encoding="UTF-8"?>
<svg id="_圖層_1" data-name="圖層 1" xmlns="http://www.w3.org/2000/svg" viewBox="0 0 283.46 283.46">
  <defs>
    <style>
      .cls-1 {
        fill: #f5f4f2;
      }
    </style>
  </defs>
  <path class="cls-1" d="M236.24,161.41c-.15.18-.71.17-.72.46,2.07,7.06,3.78,14.82-.45,21.41l31.34-6.45c-2.98,9.86-6.16,19.82-10.9,28.99-6.57,12.72-22.19,30.92-38.13,29.08-1.39-.16-4.06-1.45-5.01-1.25-.79.17-7.11,4.19-8.86,5-11.61,5.33-27.85,8.43-40.56,6.91-4.63-.56-9.58-1.64-12.94-5.08l-.14-.6c2.34-2.87,2.36-5.58,1.47-9-.2-.78-1-1.45-1.07-2.19-.14-1.39,3.97-6.85,5.08-8.26,7.41-9.33,22.81-21.91,34.91-23.18,5.08-.54,10.85,1.15,14.63-3.34,1.22-1.44,1.85-3.74,3.48-4.82,1.2-.78,4.9-1.96,6.41-2.35,2.37-.61,8.04-.92,9.66-1.86,3.26-1.9,4.35-11.3,4.19-14.76-1.03-22.49-28.82-58.89-50.71-64.56-3.67-.95-7.83-.39-11.16-2.22-1.92-1.05-4.68-4.31-5.52-6.45-5.23-13.26,13.96-25.38,25.43-21.08-.85-6.67-9.44-10.53-15.51-10.43-1.93.03-6.64,1.51-8.45,2.36-2.27,1.07-4.63,4.78-6.6,3.49-1.21-.79-.2-2.36-.34-3.43-.73-5.4-5.77-14.22-9.41-18.29-2.63-2.94-4.1-4.66-7.39-1.39-5.05,5.02-10.91,15.76-10.42,23-2.56,1.48-3.56-1.15-5.51-2.42-8.52-5.54-23.02-3.76-25.76,7.1,12.64-4.88,34.41,10.65,23.96,24.22-4.28,5.56-9.32,4.12-15.09,5.65-19.28,5.09-42.61,33.98-48.36,52.61-1.89,6.11-3.25,14.77-1.39,20.95.33,1.09,2.26,5.14,3.12,5.64,1.7,1,8.16,1.4,10.77,2.13,2.54.71,5.84,1.93,7.39,4.13.98,1.4.74,2.64,2.58,3.88.73.49,5.03,2.31,5.85,2.45,2.12.39,4.65-.53,7.21-.3,12.2,1.08,27.85,13.88,35.29,23.25,1.12,1.41,5.22,6.86,5.08,8.26-.07.74-.87,1.41-1.07,2.19-.84,3.3-.82,6.26,1.47,9-1.73,3.07-6.17,4.46-9.52,5.08-13.58,2.52-30.56-.36-43.12-5.93-2.19-.97-8.52-5.1-9.86-5.38-.83-.18-6.1,1.51-9.05,1.24-20.96-1.93-35.44-29.16-41.32-46.75-.91-2.73-2.88-8.06-3.2-10.65-.08-.63-.04-.88.67-.66,1.36.42,2.81,1.22,4.39,1.61,8.46,2.08,17.25,3.45,25.81,4.84-5.43-10.84-.06-24.17,5.45-33.98,8.65-15.4,30.52-36.91,46.99-43.38,4.84-1.9,11.27-2,14.38-6.36,7.18-10.06-3.41-24.69-14.94-23.25-2.58.32-5.32,2.13-8.27,1.28-2.78-.91,1.54-6.25,2.69-7.33,4.92-4.61,13.61-7.1,20.15-5.85,3.51.67,6.4,2.56,9.59,3.36,2.15-6.11,5.05-12.05,9.43-16.88,2.88-3.17,6.41-7.14,10.82-4.36,3.43,2.17,8.94,9.43,10.86,13.12,1.42,2.73,1.89,5.65,3.44,8.12l.61.13c6.92-4.44,14.21-4.91,21.83-1.87,4.13,1.65,11.51,6.26,9.85,11.41-3.03,1.14-5.92-.81-8.59-1.14-10.11-1.26-19.59,9.93-16.53,19.77,2.55,8.21,9.33,7.19,16,9.82,10.04,3.95,19.11,11.44,26.84,18.8,4.35-5.95,9.71-10.92,15.75-15.13,3.83-2.67,10.58-7.07,14.78-8.73,6.54-2.57,2.29,2.75,1.27,5.42-2.74,7.16-1.59,8.37-1.17,15.45.61,10.03,2.42,31.71-3.89,39.71ZM223.54,138.99c-.6-7.16,1.9-13.85,4.99-20.14l6.52-9.84c-6.06,5.32-10.98,12.08-13.7,19.72-1.74,4.9-2.53,5.55,1.13,9.67.27.31-.03.89,1.05.59ZM225.85,141.76c.67-5.33,4.28-9.76,5.99-14.76-1.43,1.73-7.69,12.69-7.33,14,.14.54.78.89,1.35.76ZM124.46,229.41c-9.23,2.12-19.98-.01-29.03-2.54-23.97-6.7-47.16-20.94-65.44-37.59-.49.56,3.12,3.88,3.68,4.39,19.32,17.73,55.77,38.2,82.25,39.45,3.49.17,8.41.96,8.54-3.71ZM159.49,229.41c.13,4.67,5.05,3.87,8.54,3.71,26.54-1.26,62.9-21.7,82.25-39.45.56-.51,4.16-3.83,3.68-4.39-18.23,16.65-41.19,30.71-65.08,37.49-9.15,2.6-20.03,4.78-29.38,2.65ZM58.76,201.54c-2.52-2.93-5.35-6.25-6.65-9.95-.9-.07-.39,1.42-.24,1.86,2.34,6.89,10.35,13.72,14.74,19.4,1,.98,3.17-.62,2.48-1.83-.09-.17-2.53-1.55-3.16-2.13-2.46-2.27-5-4.82-7.18-7.35ZM232.76,191.59c-.72-.85-.99.64-1.14.91-3.66,6.33-8.56,11.99-14.06,16.85-1.65,1.46-5.44,2.65-.47,3.72,1.73-2.7,4.39-4.57,6.44-6.97,1.35-1.58,10.23-13.32,9.23-14.52Z"/>
  <path class="cls-1" d="M158.64,210.88c.45.73,2.94.05,3.15.99-5.43,3.67-9.6,9.7-13.18,15.2-4.33-2.73-9.14-2.42-13.51,0-3.08-5.81-7.82-11.34-12.95-15.43l3.23-.92c.87-3.54,3.17-6.27,6.46-7.83,5.01-2.38,12.83-.52,18.43-.94,2.46.56,6.98,4.01,7.94,6.35.37.89.2,2.22.42,2.58ZM143.82,205.42c-.36,0-4.93-.39-3.68.91,1.37.4,3.63,1.22,3.68-.91Z"/>
  <path class="cls-1" d="M160.41,186.97c-4.82.54-8.85,3.1-11.63,7.05-2.03,2.89-2.2,7.31-6.58,7.29-.27,0-3.66-.93-3.82-1.05-.34-.24-.77-2.52-1.14-3.24-3.02-5.88-6.8-8.85-13.27-10.33.91-4.79,7.47-10.71,12.24-11.25,2.31-.26,9.18-.25,11.55-.02,4.99.47,11.68,6.59,12.65,11.55ZM144.28,178.67l-4.6.23c.92,1.35,4.62,1.85,4.6-.23Z"/>
  <path class="cls-1" d="M134.61,200.34c-6.13.37-10.68,4.97-14.05,9.64-5.78-4.73-11.99-8.94-18.84-12-.47-.23-.74-.53-.75-1.08-.06-2.37,7.06-7.93,9.22-8.78,3.71-1.47,5.54-.18,8.99-.01.84.04,1.72-.52,2.68-.51,4.2.04,10.93,3.84,12.08,8.12.4,1.47.09,3.12.67,4.63ZM120.78,190.2c-1.31.15-3.46-.62-4.14.91,1.37.35,4.03,1.35,4.14-.91Z"/>
  <path class="cls-1" d="M183.43,197.56c-7.24,2.77-13.48,7.38-19.65,11.95-.58.05-4.89-5.19-6.17-6.13-2.31-1.71-5.07-2.61-7.83-3.29-1.18-6.55,6.79-12.56,12.7-12.56.91,0,1.8.59,2.75.59,2.87.03,4.63-1.31,7.95-.32,3.67,1.09,9.32,6.05,10.25,9.77ZM167.32,190.2l-4.14.23c.93,1.49,4.05,1.94,4.14-.23Z"/>
  <path class="cls-1" d="M140,226.74c7.05-1.62,11.46,7.07,7.24,12.32-4.97,6.19-13.21.91-12.07-6.08.35-2.11,2.66-5.74,4.82-6.24Z"/>
  <path class="cls-1" d="M160.35,103.55l-.38,3.4c-2.79.64-5.15,2.35-7.87,3.2-4.92,1.53-13.78,1.69-18.77.38-1.24-.33-8.19-3.01-8.86-3.58s-.56-2.55-.92-3.46c2.26-1.16,3,1.33,4.64,2.5,8.18,5.84,20.98,5.89,28.77-.66,1.18-.99,1.14-3.13,3.39-1.77Z"/>
</svg>