<?xml version="1.0" encoding="UTF-8"?>
<svg id="_圖層_1" data-name="圖層 1" xmlns="http://www.w3.org/2000/svg" viewBox="0 0 283.46 283.46">
  <defs>
    <style>
      .cls-1 {
        fill: #f5f4f2;
      }
    </style>
  </defs>
  <path class="cls-1" d="M80.86,116.84c-.51.03-1.02-.08-1.46-.35-1.75-1.08-5.89-4.44-3.92-11.23,2.15-7.4,7-7.37,8.7-7.11.33.05.63-.16.72-.48.46-1.83,2.74-7.15,13.5-7.15s13.93,4.8,14.48,6.15c.09.21.27.36.5.4,2.22.36,13.51,2.83,13.45,15.12,0,.48-.49.8-.92.6-3.45-1.62-16.13-6.05-23.85,11.66-.19.43-.75.54-1.07.19-2.05-2.24-8.83-8.49-20.13-7.8Z"/>
  <path class="cls-1" d="M98.02,143.62c-1.48-1.72-6.83-7.65-9.75-6.99-.28.06-.56-.03-.73-.26-1.37-1.78-6.57-8.93-3.74-11.77,3.21-3.21,13.53-2.45,18.48,5.38.12.18.3.31.51.34,1.87.25,11.21,2.12,13.25,14.58.1.61-.57,1.07-1.1.75-2.85-1.73-9.82-5.15-16-1.86-.31.16-.69.11-.91-.16Z"/>
  <path class="cls-1" d="M127.76,178.72c-1.17-.66-3.22-2.91-.15-10.29,0,0,1.64-5.33-1.61-5.91s-7.31-10.32-7.31-10.32c0,0-6.52-9.25-21.96-7.2-.26.03-.53-.06-.7-.27-1.19-1.42-6.05-6.93-8.18-5.51-1.43.96.79,8.1,2.86,13.82,2.78,7.68,6.95,14.81,12.5,20.8,4.87,5.26,11.34,10.29,18.89,11.41,2.64.39,5.32-1.01,6.16-3.54.18-.55.29-1.15.27-1.8-.01-.5-.33-.94-.77-1.19Z"/>
  <path class="cls-1" d="M124.59,186.26c-3.61-.2-23.04-2.27-34.98-23.9-2.99-5.42-4.71-11.45-5.38-17.61-.96-8.93-4.44-24.92-16.94-24.24-.34.02-.67-.08-.92-.31-1.72-1.52-9.27-7.46-19.91-5.33-9.58,1.92-12.34,7.35-13.09,9.58-.19.56-.72.92-1.31.88-4.69-.32-23.79-.75-31.67,12.84-.42.73-.27,1.67.35,2.24,1.24,1.13,4.4,2.13,12.45-.38,12.98-4.06,34.89,12.17,34.89,12.17,0,0,30.34,25.97,56.96,33.27,0,0,17.43,5.13,19.87,1.46.19-.28,0-.66-.33-.67Z"/>
  <path class="cls-1" d="M81.61,185.27c-1.88-2.39-5.29-6.29-7.55-6.29,0,0-11.17-12.77-27.98,1.27-.27.23-.41.59-.34.93.31,1.6,1.74,6.06,8.08,6.95.74.1,1.34.68,1.43,1.42.37,3.17,2.96,11.21,19.71,13.43,21,2.78,30.74-10.2,30.74-10.2h1.81c.79,0,1.44-.64,1.44-1.44v-.99c0-.58-.35-1.1-.88-1.32-2.92-1.24-12.7-4.84-22.91-2.53-1.33.3-2.71-.15-3.56-1.22Z"/>
  <path class="cls-1" d="M46.4,156.74c2.81,2.86,13.09,12.73,22.79,14.12,0,0-5.99-.6-11.28.78-3.22.84-6.54,1.26-9.86,1.03-4.91-.33-10.48-1.82-10.53-6.81,0-.44-.19-.87-.49-1.19-1.67-1.76-6.44-7.69-.29-12.47,5.93-4.62,8.12.76,8.73,2.94.17.61.5,1.16.94,1.61Z"/>
  <path class="cls-1" d="M101.37,214.09c.19-.16.3-.4.34-.64.46-2.52,3.85-15.87,25.09-23.93,0,0,2.2.73-.37,2.2-.32.18-.59.43-.81.73-.38.52-1,1.37-1.58,2.25-.76,1.13-1.28,2.41-1.55,3.75-.48,2.43-1.78,6.71-5,6.54-.21-.01-.38.16-.35.36.39,2.28,1.57,13.22-12.25,11.76,0,0-6.09-.76-3.52-3.02Z"/>
  <path class="cls-1" d="M132.2,208.19s1.62.81.81,2.43-1.62,0-1.62,0l-.2.44c-.67,1.43-2.71,1.43-3.37,0l-.2-.44s-.81,1.62-1.62,0,.81-2.43.81-2.43c-6.66-3.33-.56-12.14,1.83-15.18.44-.56,1.29-.56,1.73,0,2.39,3.04,8.5,11.85,1.83,15.18Z"/>
  <path class="cls-1" d="M106.52,118.12s4.87-4.87,11.36,6.49c0,0,8.93-2.43,9.74,12.98,0,0-12.17.81-17.85-8.11,0,0-5.68-7.3-3.25-11.36Z"/>
  <path class="cls-1" d="M131.92,116.63c.15-.03.28-.11.36-.24,3.24-4.61,8.85-5.54,10.45-2.54s-2.43,9.14-2.43,9.14c-6.49-.81-10.8,8.11-10.8,8.11,0,0-4.31-8.93-10.8-8.11,0,0-4.06-6.1-2.43-9.14,1.6-2.99,7.21-2.06,10.45,2.54.09.12.22.21.36.24l1.3.24c.74.14,1.51.14,2.25,0l1.3-.24Z"/>
  <path class="cls-1" d="M69.19,115.16s.81-18.95,15.42-18.95c0,0-.62-5.45-9.64-4.75-9.02.7-10.64,7.19-10.64,7.19,0,0-5.68-.81-6.49,4.06,0,0-11.36.81-11.36,11.36,0,0,10.55-9.16,22.72,1.1Z"/>
  <path class="cls-1" d="M129.43,81.6c-5.79,0-6.36,4.52-6.38,6.14,0,.32-.25.59-.57.63-8.13,1.09-6.54,7-5.94,8.6.08.21.33.33.53.22,8.11-4.24,12.43,7.12,12.43,7.12,0,0,4.61-11.36,12.43-7.12.2.11.45,0,.53-.22.59-1.61,2.19-7.51-5.94-8.6-.32-.04-.56-.31-.57-.63-.02-1.62-.59-6.14-6.38-6.14h-.12Z"/>
  <path class="cls-1" d="M178.43,116.84c.51.03,1.02-.08,1.46-.35,1.75-1.08,5.89-4.44,3.92-11.23-2.15-7.4-7-7.37-8.7-7.11-.33.05-.63-.16-.72-.48-.46-1.83-2.74-7.15-13.5-7.15s-13.93,4.8-14.48,6.15c-.09.21-.27.36-.5.4-2.22.36-13.51,2.83-13.45,15.12,0,.48.49.8.92.6,3.45-1.62,16.13-6.05,23.85,11.66.19.43.75.54,1.07.19,2.05-2.24,8.83-8.49,20.13-7.8Z"/>
  <path class="cls-1" d="M161.27,143.62c1.48-1.72,6.83-7.65,9.75-6.99.28.06.56-.03.73-.26,1.37-1.78,6.57-8.93,3.74-11.77-3.21-3.21-13.53-2.45-18.48,5.38-.12.18-.3.31-.51.34-1.87.25-11.21,2.12-13.25,14.58-.1.61.57,1.07,1.1.75,2.85-1.73,9.82-5.15,16-1.86.31.16.69.11.91-.16Z"/>
  <path class="cls-1" d="M131.52,178.72c1.17-.66,3.22-2.91.15-10.29,0,0-1.64-5.33,1.61-5.91,3.25-.58,7.31-10.32,7.31-10.32,0,0,6.52-9.25,21.96-7.2.26.03.53-.06.7-.27,1.19-1.42,6.05-6.93,8.18-5.51,1.43.96-.79,8.1-2.86,13.82-2.78,7.68-6.95,14.81-12.5,20.8-4.87,5.26-11.34,10.29-18.89,11.41-2.64.39-5.32-1.01-6.16-3.54-.18-.55-.29-1.15-.27-1.8.01-.5.33-.94.77-1.19Z"/>
  <path class="cls-1" d="M134.69,186.26c3.61-.2,23.04-2.27,34.98-23.9,2.99-5.42,4.71-11.45,5.38-17.61.96-8.93,4.44-24.92,16.94-24.24.34.02.67-.08.92-.31,1.72-1.52,9.27-7.46,19.91-5.33,9.58,1.92,12.34,7.35,13.09,9.58.19.56.72.92,1.31.88,4.69-.32,23.79-.75,31.67,12.84.42.73.27,1.67-.35,2.24-1.24,1.13-4.4,2.13-12.45-.38-12.98-4.06-34.89,12.17-34.89,12.17,0,0-30.34,25.97-56.96,33.27,0,0-17.43,5.13-19.87,1.46-.19-.28,0-.66.33-.67Z"/>
  <path class="cls-1" d="M177.68,185.27c1.88-2.39,5.29-6.29,7.55-6.29,0,0,11.17-12.77,27.98,1.27.27.23.41.59.34.93-.31,1.6-1.74,6.06-8.08,6.95-.74.1-1.34.68-1.43,1.42-.37,3.17-2.96,11.21-19.71,13.43-21,2.78-30.74-10.2-30.74-10.2h-1.81c-.79,0-1.44-.64-1.44-1.44v-.99c0-.58.35-1.1.88-1.32,2.92-1.24,12.7-4.84,22.91-2.53,1.33.3,2.71-.15,3.56-1.22Z"/>
  <path class="cls-1" d="M212.88,156.74c-2.81,2.86-13.09,12.73-22.79,14.12,0,0,5.99-.6,11.28.78,3.22.84,6.54,1.26,9.86,1.03,4.91-.33,10.48-1.82,10.53-6.81,0-.44.19-.87.49-1.19,1.67-1.76,6.44-7.69.29-12.47-5.93-4.62-8.12.76-8.73,2.94-.17.61-.5,1.16-.94,1.61Z"/>
  <path class="cls-1" d="M157.91,214.09c-.19-.16-.3-.4-.34-.64-.46-2.52-3.85-15.87-25.09-23.93,0,0-2.2.73.37,2.2.32.18.59.43.81.73.38.52,1,1.37,1.58,2.25.76,1.13,1.28,2.41,1.55,3.75.48,2.43,1.78,6.71,5,6.54.21-.01.38.16.35.36-.39,2.28-1.57,13.22,12.25,11.76,0,0,6.09-.76,3.52-3.02Z"/>
  <path class="cls-1" d="M152.77,118.12s-4.87-4.87-11.36,6.49c0,0-8.93-2.43-9.74,12.98,0,0,12.17.81,17.85-8.11,0,0,5.68-7.3,3.25-11.36Z"/>
  <path class="cls-1" d="M190.09,115.16s-.81-18.95-15.42-18.95c0,0,.62-5.45,9.64-4.75,9.02.7,10.64,7.19,10.64,7.19,0,0,5.68-.81,6.49,4.06,0,0,11.36.81,11.36,11.36,0,0-10.55-9.16-22.72,1.1Z"/>
  <path class="cls-1" d="M138.97,140.02c.97,6.58-1.28,14.03-5.44,19.64-.26.35-.77.41-1.11.13h-.01c-.31-.27-.37-.71-.16-1.04,3.35-5.2,3.92-11.81,3.68-17.88-.02-.42.3-.78.73-.81.87-.05,2.16-.13,2.16-.13l.16.09Z"/>
  <path class="cls-1" d="M133.29,143.33c.5,4.95-.65,10.56-2.77,14.79-.13.27-.39.31-.57.1h0c-.16-.2-.19-.53-.08-.79,1.71-3.92,2-8.89,1.87-13.46,0-.32.16-.59.37-.61.44-.04,1.1-.09,1.1-.09l.08.06Z"/>
  <path class="cls-1" d="M119.93,140.02c-.97,6.58,1.28,14.03,5.44,19.64.26.35.77.41,1.11.13h.01c.31-.27.37-.71.16-1.04-3.35-5.2-3.92-11.81-3.68-17.88.02-.42-.3-.78-.73-.81-.87-.05-2.16-.13-2.16-.13l-.16.09Z"/>
  <path class="cls-1" d="M125.61,143.33c-.5,4.95.65,10.56,2.77,14.79.13.27.39.31.57.1h0c.16-.2.19-.53.08-.79-1.71-3.92-2-8.89-1.87-13.46,0-.32-.16-.59-.37-.61-.44-.04-1.1-.09-1.1-.09l-.08.06Z"/>
</svg>