<?xml version="1.0" encoding="UTF-8"?>
<svg id="_圖層_1" data-name="圖層 1" xmlns="http://www.w3.org/2000/svg" viewBox="0 0 283.46 283.46">
  <defs>
    <style>
      .cls-1 {
        fill: #f5f4f2;
      }
    </style>
  </defs>
  <path class="cls-1" d="M88.4,59.08l11.21-7.47c.38-.26.84-.39,1.3-.39h1.66c.99,0,1.86.62,2.2,1.55,1.06,2.87,4.51,9.28,15.33,15.23,1.2.66,2.64.75,3.91.23,4.69-1.94,18.32-5.42,38.1,7.76,0,0,55.33,32.66,113.49-12.26.39-.3.88.22.56.59-8.86,10.33-45.08,44.68-118.17,19.92,0,0-23.71-13.23-24.5,8.27-.02.47-.3.89-.73,1.06l-5.44,2.13c-1.49.59-3.18.4-4.5-.5-2.9-1.97-7.89-5.63-9.69-8.5-.6-.96-1.26-1.88-2.12-2.62-3.04-2.62-9.94-7.02-16.12-.04-.06.07-.18.05-.18-.05-.06-1.39-.65-8.39-6.35-13.81-.11-.1-.02-.28.13-.23,1,.35,3.05.98,5.5,1.17.7.05,1.34-.27,1.83-.76.73-.71,2.72-1.02,8.07,3.57,0,0,4.99,3.9,10.32,1.59.2-.09.24-.37.07-.51-1.77-1.36-9.12-7.12-11.43-10.93-.44-.73-1.24-1.16-2.09-1.19-3.12-.12-10.1-.63-12.43-2.81-.29-.27-.24-.75.1-.98Z"/>
  <path class="cls-1" d="M138.17,226.24c.06-1.79,1.26-8.47,10.47-8.76.99-.03,1.99.24,2.75.87.62.5,1.07,1.22.65,2.15-.48,1.04-1.71,1.51-2.81,1.18-.97-.3-2.05-.88-2.59-1.15-1.51-.75-6.66-.04-8.33,5.72-.02.08-.14.07-.14-.01Z"/>
  <path class="cls-1" d="M138.17,231.62c.06-1.79,1.26-8.47,10.47-8.76.99-.03,1.99.24,2.75.87.62.5,1.07,1.22.65,2.15-.48,1.04-1.71,1.51-2.81,1.18-.97-.3-2.05-.88-2.59-1.15-1.51-.75-6.66-.04-8.33,5.72-.02.08-.14.07-.14-.01Z"/>
  <path class="cls-1" d="M138.17,237c.06-1.79,1.26-8.47,10.47-8.76.99-.03,1.99.24,2.75.87.62.5,1.07,1.22.65,2.15-.48,1.04-1.71,1.51-2.81,1.18-.97-.3-2.05-.88-2.59-1.15-1.51-.75-6.66-.04-8.33,5.72-.02.08-.14.07-.14-.01Z"/>
  <path class="cls-1" d="M131.26,219.33c.06-1.79,1.26-8.47,10.47-8.76.99-.03,1.99.24,2.75.87.62.5,1.07,1.22.65,2.15-.48,1.04-1.71,1.51-2.81,1.18-.97-.3-2.05-.88-2.59-1.15-1.51-.75-6.66-.04-8.33,5.72-.02.08-.14.07-.14-.01Z"/>
  <g>
    <path class="cls-1" d="M139.52,221.54c-7.19,1.19-8.21,6.91-8.26,8.54,0,.08.11.09.14.01,1.31-4.49,4.73-5.91,6.88-5.96.27-1.2.81-2.07,1.24-2.6Z"/>
    <path class="cls-1" d="M144.48,222.19c-.65-.53-1.46-.79-2.29-.84-1.26.78-2.26,2.18-2.74,2.92.1.03.2.07.28.11.54.27,1.62.85,2.59,1.15,1.1.33,2.33-.14,2.81-1.18.43-.93-.03-1.65-.65-2.15Z"/>
  </g>
  <g>
    <path class="cls-1" d="M145.11,217.56c-.15-.28-.37-.53-.63-.74-.77-.62-1.76-.9-2.75-.87-9.2.28-10.41,6.97-10.47,8.76,0,.08.11.09.14.01,1.68-5.75,6.83-6.47,8.33-5.72.28.14.72.37,1.2.6.58-.48,1.98-1.43,4.18-2.04Z"/>
    <path class="cls-1" d="M141.74,219.95c.19.07.38.14.57.2,1.1.33,2.33-.14,2.81-1.18.11-.23.16-.46.16-.66-1.71.47-2.9,1.17-3.55,1.64Z"/>
  </g>
  <path class="cls-1" d="M172.15,78.34s23.82,6.91,39.18-1.54c0,0,2.3-.77,1.54,1.54-.58,1.75-7.34,4.37-14.25,5.54-3.65.62-7.39.39-10.96-.57-4.91-1.32-12.49-3.48-15.5-4.98Z"/>
  <path class="cls-1" d="M209.17,247.12h-67.24l-.09-1.01c-.02-.56.4-1.04.96-1.09l26.62-2.54c.27-.03.49-.21.59-.49.89-2.53,4.1-8.14,14.72-5.47.29.07.61-.08.77-.37,1.15-2.06,4.49-6.47,11.56-5.09.29-3.07,2.99-5.25,4.18-6.08.07-.05.09-.13.1-.19.27-4,1.91-7.59,4.63-10.21,3.13-3.01,6.03-4.29,8.61-3.8,2.41.45,3.87,2.29,4.62,3.57,1.55-1.01,4.7-2.65,8.06-2.07,2.43.42,4.5,1.9,6.16,4.39,4.89,7.34.73,14.62-.87,16.94,1.49,1.57,1.64,3.1,1.48,4.14-.37,2.43-2.75,4.81-6.53,6.52-5.5,2.5-12.06,2.84-18.32,2.84ZM162.83,245.12h46.33c6.04,0,12.33-.32,17.49-2.66,3.05-1.38,5.11-3.3,5.38-5,.15-.96-.27-1.87-1.28-2.78-.51-.46-.59-1.22-.18-1.76,1-1.32,5.76-8.25,1.17-15.13-1.34-2.02-2.97-3.2-4.84-3.52-3.23-.56-6.35,1.54-7.23,2.19-.3.23-.69.31-1.06.21-.37-.09-.67-.34-.83-.69-.3-.66-1.46-2.83-3.58-3.23-1.92-.37-4.22.74-6.86,3.28-2.36,2.27-3.78,5.4-4.01,8.81-.05.79-.4,1.41-.96,1.79-1,.69-3.32,2.54-3.34,4.93-.02,1.8,1.28,3.64,3.86,5.49,0,0,4.32,2.76,7.84,1.81,1.47-.39,2.58-1.37,3.4-2.97.23-.46.65-.78,1.15-.88,1.5-.29,6.3-1.72,5.32-7.9-.16-.41-1.08-2.64-2.42-2.23-.7.21-1.44-.08-1.86-.71-.39-.6-1.46-1.99-2.95-2.04-.03,0-.05,0-.08,0-1.42,0-3.08,1.2-4.78,3.46-1.01,1.34-1.4,2.91-1.09,4.31.15.68.43,1.15.82,1.4.46.29,1.17.32,2.09.09,2.01-.5,3.17-1.69,3.45-3.53.09-.58-.11-1.19-.53-1.59-.2-.19-.63-.5-1.24-.38-.93.18-1.44,1.21-1.53,3.06l-2-.09c.17-3.59,1.8-4.66,3.14-4.92,1.09-.21,2.19.11,3.01.9.89.86,1.31,2.11,1.12,3.34-.41,2.63-2.17,4.47-4.95,5.16-1.46.36-2.68.26-3.62-.33-.87-.54-1.45-1.43-1.72-2.66-.44-1.97.09-4.14,1.45-5.94,2.18-2.89,4.37-4.28,6.52-4.26,2.22.07,3.7,1.68,4.44,2.76,2.52-.55,4.13,2.11,4.65,3.64l.04.15c1.32,7.94-5.01,9.87-6.72,10.25-1.07,2.03-2.62,3.33-4.59,3.86-4.38,1.17-9.28-1.96-9.48-2.1-2.49-1.78-4-3.63-4.52-5.55-5.97-1.42-8.82,1.84-10,3.97-.6,1.08-1.83,1.63-3,1.34-8.7-2.19-11.47,1.69-12.35,4.19-.35,1.01-1.25,1.72-2.29,1.82l-6.77.65ZM232.09,233.19h0s0,0,0,0ZM218.48,214.85s0,0,0,0c0,0,0,0,0,0Z"/>
  <path class="cls-1" d="M256.27,122.52h-36.17l-.09-1.47.74-.09,14.23-1.36c.07,0,.11-.06.13-.12.39-1.1,2.11-4.57,8.13-3.06.07.02.14-.03.17-.09.62-1.12,2.43-3.5,6.19-2.87.27-1.61,1.67-2.74,2.3-3.17.11-2.13,1.01-4.1,2.5-5.54,1.72-1.66,3.34-2.37,4.79-2.09,1.25.24,2.05,1.12,2.5,1.82.91-.56,2.53-1.32,4.27-1.02,1.36.23,2.52,1.05,3.44,2.44,2.6,3.9.56,7.75-.37,9.16.75.86.82,1.69.73,2.27-.21,1.37-1.53,2.7-3.61,3.65-2.98,1.35-6.51,1.54-9.89,1.54ZM235.51,121.02h20.75c3.21,0,6.55-.17,9.27-1.4,1.54-.7,2.62-1.69,2.75-2.51.02-.16.1-.65-.62-1.29-.36-.32-.41-.85-.12-1.23.52-.69,2.99-4.28.62-7.84-.69-1.03-1.51-1.63-2.45-1.79-1.64-.28-3.25.8-3.7,1.13-.21.16-.49.22-.75.15-.26-.07-.47-.24-.59-.49-.15-.33-.73-1.41-1.76-1.6-.95-.18-2.14.41-3.48,1.7-1.22,1.18-1.96,2.8-2.08,4.57-.03.49-.25.88-.61,1.12-.39.27-1.68,1.25-1.69,2.46,0,.89.66,1.82,1.97,2.76h0s2.23,1.42,4.02.94c.72-.19,1.27-.68,1.68-1.48.16-.31.44-.52.77-.58.96-.19,3.14-.95,2.67-3.96-.09-.22-.53-1.19-1.02-1.04-.46.14-.97-.05-1.24-.47-.19-.29-.71-.97-1.41-.99-.46,0-.94.23-1.47.7.18-.09.36-.14.51-.17.65-.13,1.31.07,1.8.54.53.51.78,1.25.66,1.97-.23,1.5-1.23,2.54-2.81,2.93-.84.21-1.55.14-2.1-.2-.36-.22-.82-.67-1.02-1.56-.25-1.12.05-2.34.81-3.35,1.21-1.61,2.45-2.38,3.67-2.36,1.2.04,2.02.85,2.46,1.46,1.23-.18,2.2.93,2.59,2.12l.03.11c.58,3.46-1.57,5.22-3.66,5.7-.6,1.09-1.46,1.79-2.54,2.08-2.44.65-5.13-1.08-5.24-1.15-1.33-.95-2.15-1.94-2.47-2.97-2.97-.65-4.39.98-4.99,2.05-.37.66-1.13,1-1.85.82-4.49-1.13-5.9.83-6.35,2.1-.17.49-.55.87-1.02,1.03ZM268.67,114.69s0,0,0,0c0,0,0,0,0,0ZM255.96,111.1c-.41.62-.56,1.32-.42,1.95.07.31.18.51.34.61.25.15.65.09.95.02,1-.25,1.55-.81,1.69-1.71.04-.24-.05-.5-.22-.66-.09-.09-.26-.2-.47-.15-.48.09-.62.83-.65,1.43l-1.5-.07c.03-.58.13-1.05.27-1.42ZM262.04,105.1s0,0,0,0c0,0,0,0,0,0ZM261.12,104.87s0,0,0,0c0,0,0,0,0,0Z"/>
  <path class="cls-1" d="M254.85,120.56c-.42-.35-.97-.48-1.49-.33-1.43.43-4.14,1.17-5.94,1.17h9.96s-1.52,0-2.53-.84Z"/>
  <g>
    <path class="cls-1" d="M58.62,194.68H-1.38l-.14-1.95.99-.14,23.72-2.26c.19-.02.36-.16.43-.36.8-2.29,3.69-7.34,13.25-4.95.21.05.44-.06.56-.28,1.03-1.85,4.01-5.79,10.3-4.61.32-2.72,2.7-4.64,3.76-5.37l.04-.17c.24-3.51,1.71-6.73,4.15-9.08,2.81-2.71,5.42-3.86,7.77-3.42,2.13.4,3.44,1.98,4.13,3.14,1.42-.91,4.2-2.31,7.16-1.8,2.19.38,4.06,1.71,5.56,3.95,4.35,6.52.75,12.98-.73,15.14,1.3,1.41,1.43,2.78,1.28,3.72-.34,2.2-2.48,4.35-5.88,5.89-4.92,2.23-10.77,2.54-16.36,2.54ZM19.63,192.68h38.98c5.37,0,10.96-.29,15.54-2.36,2.69-1.22,4.5-2.89,4.73-4.37.13-.82-.23-1.6-1.1-2.38-.5-.45-.58-1.19-.18-1.72.88-1.16,5.08-7.28,1.04-13.35-1.18-1.77-2.61-2.81-4.24-3.09-2.84-.49-5.58,1.36-6.36,1.94-.3.22-.68.3-1.04.21-.36-.09-.65-.34-.81-.67-.27-.57-1.27-2.47-3.11-2.81-1.65-.31-3.73.69-6.01,2.89-2.08,2-3.34,4.76-3.54,7.77-.05.73-.38,1.32-.9,1.68-.88.6-2.91,2.23-2.93,4.31-.01,1.56,1.13,3.18,3.39,4.8,0,0,3.81,2.43,6.9,1.6,1.28-.34,2.24-1.19,2.96-2.59.22-.44.62-.75,1.1-.84,1.68-.33,5.48-1.65,4.65-6.9-.14-.37-.92-2.23-2.02-1.91-.66.2-1.39-.08-1.78-.68-.34-.52-1.26-1.72-2.54-1.76-1.23-.06-2.71,1.01-4.24,3.04-.88,1.17-1.22,2.53-.95,3.75.13.58.36.97.68,1.17.48.3,1.23.2,1.78.06,1.77-.44,2.75-1.44,3-3.05.08-.48-.09-.99-.44-1.32-.16-.16-.51-.41-1-.31-.77.15-1.2,1.03-1.27,2.62l-2-.1c.16-3.27,1.66-4.25,2.89-4.49,1.01-.19,2.02.1,2.78.83.82.79,1.21,1.94,1.03,3.07-.37,2.39-1.97,4.06-4.49,4.69-1.33.33-2.45.23-3.31-.3-.8-.49-1.33-1.32-1.58-2.44-.4-1.79.08-3.75,1.31-5.38,1.96-2.61,3.95-3.88,5.9-3.84,1.98.06,3.31,1.47,4,2.45,2.27-.46,3.73,1.94,4.19,3.33l.04.15c1.18,7.09-4.4,8.88-6.02,9.24-.97,1.81-2.36,2.97-4.14,3.45-3.95,1.06-8.35-1.76-8.53-1.88-2.21-1.58-3.57-3.24-4.06-4.95-5.2-1.21-7.69,1.64-8.72,3.5-.56,1.01-1.71,1.52-2.8,1.25-7.67-1.92-10.1,1.47-10.87,3.67-.33.94-1.16,1.6-2.13,1.69l-3.75.36ZM64.72,185.42s0,0,0,0c0,0,0,0,0,0ZM79.11,182.08s0,0,0,0c0,0,0,0,0,0Z"/>
    <path class="cls-1" d="M56.26,191.66c-.7-.58-1.61-.81-2.48-.55-2.38.72-6.9,1.95-9.9,1.95h16.6s-2.54,0-4.21-1.4Z"/>
    <path class="cls-1" d="M79.79,168.41l-.49-1.94c2.29-.57,3.61-1.93,3.94-4.03.11-.68-.13-1.4-.62-1.88-.24-.23-.75-.6-1.48-.46-1.09.21-1.7,1.4-1.8,3.52l-2-.1c.19-3.93,1.96-5.1,3.41-5.39,1.18-.23,2.37.12,3.25.98.97.93,1.42,2.29,1.22,3.63-.45,2.89-2.38,4.9-5.43,5.66Z"/>
    <path class="cls-1" d="M88.44,171.31l-.97-1.75c2.84-1.57,3.98-4.26,3.38-8-.17-.45-1.21-3.06-2.84-2.57-.71.22-1.52-.09-1.95-.75-.44-.68-1.67-2.27-3.39-2.32-1.69-.05-3.56,1.3-5.52,3.91-1.04,1.38-1.52,3.03-1.31,4.51l-1.98.28c-.28-2.01.34-4.19,1.69-5.99,2.41-3.2,4.81-4.82,7.19-4.71,2.47.08,4.11,1.92,4.91,3.09,2.77-.67,4.56,2.28,5.12,3.97l.04.15c1.03,6.18-2.29,9.02-4.37,10.17Z"/>
    <path class="cls-1" d="M66.85,165l-1.88-.7c.9-2.44,3.04-4.18,4.23-5,.13-.09.15-.22.16-.3v-.11c.3-4.33,2.12-8.31,5.13-11.21,3.46-3.33,6.66-4.75,9.51-4.21,2.72.51,4.34,2.62,5.14,4.04,1.67-1.11,5.22-3.02,9.01-2.36,2.68.46,4.96,2.09,6.8,4.84,2.1,3.15,2.91,6.62,2.41,10.33l-1.98-.27c.44-3.21-.27-6.22-2.09-8.95-1.52-2.28-3.36-3.62-5.47-3.98-3.65-.63-7.17,1.73-8.16,2.47-.32.24-.71.31-1.09.22-.37-.1-.68-.35-.85-.71-.34-.75-1.66-3.21-4.08-3.67-2.17-.41-4.79.83-7.75,3.69-2.65,2.55-4.25,6.07-4.51,9.9v.1c-.05.74-.43,1.4-1.02,1.81-.8.55-2.74,2.05-3.48,4.05Z"/>
    <path class="cls-1" d="M40.28,183.8H3.06l-.1-1.01c-.03-.57.4-1.05.96-1.1l29.71-2.83c.34-.03.63-.27.75-.62.98-2.8,4.52-8.99,16.29-6.03.37.09.78-.1.99-.47.24-.44.52-.87.81-1.27l1.62,1.17c-.25.34-.48.7-.68,1.07-.65,1.16-1.97,1.75-3.22,1.44-10.17-2.55-13.12,2.47-13.92,4.75-.38,1.08-1.34,1.85-2.45,1.95l-9.99.95h16.46v2Z"/>
    <path class="cls-1" d="M102.5,186.65h-22.27v-2h22.27c4.22,0,8.16-.81,11.71-2.39,3.45-1.54,5.45-3.26,5.76-4.95.25-1.36-.66-2.45-1.06-2.86-.29-.29-.4-.73-.29-1.12s.44-.7.84-.8c.42-.1,2.54-.65,2.92-1.95.29-1.03-.53-2.58-2.32-4.37-5.18-5.18-8.56-3.3-9.47-2.6-.56.44-1.35.34-1.8-.22-.84-1.07-4-4.39-9.15-2.33-2.79,1.12-4.78,3.63-5.45,6.89-.61,2.99.06,5.9,1.75,7.6,1.19,1.19,2.74,1.8,4.59,1.76l.02,2c-2.34,0-4.47-.78-6.03-2.35-2.17-2.17-3.05-5.77-2.3-9.41.79-3.87,3.29-6.99,6.67-8.34,5.79-2.31,9.66.96,11.03,2.45,1.63-.96,5.92-2.47,11.54,3.15,2.4,2.4,3.35,4.53,2.83,6.34-.46,1.6-1.92,2.49-3.13,2.96.55.86,1.04,2.1.77,3.58-.45,2.4-2.77,4.55-6.91,6.41-3.81,1.7-8.02,2.57-12.53,2.57ZM110.37,162.15h0s0,0,0,0ZM109.38,162.02s0,0,0,0c0,0,0,0,0,0Z"/>
    <path class="cls-1" d="M100.57,179.31l-.02-2c2.87-.04,5.91-1.59,7.43-3.1,1-1,.9-2.1.48-2.79-.49-.8-1.7-1.52-3.48-.93-.94.31-1.52.76-1.73,1.32-.33.88.26,1.91.26,1.92l-1.72,1.02c-.11-.19-1.08-1.87-.42-3.63.43-1.16,1.43-2.02,2.98-2.53,2.7-.9,4.87.24,5.82,1.77,1.04,1.69.74,3.75-.76,5.25-1.75,1.75-5.25,3.65-8.81,3.69Z"/>
    <path class="cls-1" d="M81.98,173.87l-1.23-1.58c2.75-2.14,9.05-4.99,13.24-.44l-1.47,1.36c-3.99-4.33-10.28.46-10.54.67Z"/>
  </g>
  <path class="cls-1" d="M218.77,215.22c-.25-.23.06-1.75-1.17-2.64-4.57-3.34-13.13,3.44-14.11,8.13-.29,1.39.12,4.48-.25,4.99-.48.66-3.91.44-4.16,4.63-.22,3.76,2.97,6.1,4.95,8.71-6.92-2.52-4.18-11.13-13.49-6.16-1.74.93-4.28,4.24-5.3,4.5-3.17.81-6.69-1.32-11.16,1.37-2.97,1.79-1.7,4.81-2.8,5.58l-8.42.99c10.53-.58,21.24,1.61,31.77.73,7.76-.65,7.42-1.87,16.08-.78,5.19.65,21.48-2.76,22.52-8.81.54-3.15-3.45-1.55-3.4-2.65,4.66-4.92,5.68-18.41-2.22-20.1-2.61-.56-7.56,2.71-8.85,1.52Z"/>
  <path class="cls-1" d="M283.44,173.6c-16.09,9.63-31.53,22.97-39.66,32.25-1.83,2.09-7.69,9.15-8.44,11.29-.2.56,1.36,6.03,1.07,8.74-.24,2.3-2.61,6.45-2.57,7.01.06.85,1.74,1.59,1.55,3.24-.72,6.32-15.06,10.1-20.37,10.48l-74.82-.03,2.47-2.08,26.59-.67c1.31-5.19,5.21-7.34,10.27-8.12-20.05-4.99-34.36-24.71-35.85-44.92-2.04-27.66,13.2-47.47,7.43-77.65-1.76-9.21-6.66-20.36-15.83-23.86.15-4.84,7.53-7.95,11.63-7.64,4.55.34,12.32,5.45,17.18,7.28,5.44,2.05,9.78.69,12.76,6.21,8.04,14.9,8.43,40.4,5.16,56.68-3.08,15.33-12.41,29.34-.03,44.23,19.22,23.12,43.3-18.91,54.41-30.58,12.47-13.1,29.03-25.66,47.14-34.48l-.09,42.63ZM218.95,214.88c-.26-.23.06-1.76-1.18-2.66-4.6-3.36-13.22,3.46-14.2,8.18-.29,1.39.12,4.51-.25,5.02-.48.66-3.94.44-4.19,4.66-.22,3.78,2.99,6.14,4.98,8.77-6.96-2.54-4.2-11.2-13.58-6.2-1.75.93-4.31,4.27-5.34,4.53-3.19.82-6.74-1.33-11.23,1.38-2.99,1.8-1.71,4.84-2.81,5.61l-8.47,1c10.6-.59,21.38,1.62,31.97.73,7.81-.65,7.47-1.88,16.18-.79,5.22.65,21.62-2.77,22.67-8.87.55-3.17-3.47-1.56-3.42-2.67,4.69-4.95,5.72-18.53-2.23-20.23-2.62-.56-7.61,2.73-8.91,1.53Z"/>
</svg>