<?xml version="1.0" encoding="UTF-8"?>
<svg id="_圖層_1" data-name="圖層 1" xmlns="http://www.w3.org/2000/svg" viewBox="0 0 283.46 283.46">
  <defs>
    <style>
      .cls-1 {
        fill: #f5f4f2;
      }
    </style>
  </defs>
  <path class="cls-1" d="M161.32,166.76c-1.65,5.31-17.91-2.8-19.39-7.86-1.91-17.25,1.76-37.51-.17-54.37-1.13-9.89-12.61,4.22-14.09,9.99-1.34,5.22-.02,6.51-.08,10.74-.19,13.33.53,26.66-1.14,39.87-1.07,1.1-17.99-5.37-19.07-7.64-.29-18.34-5.76-47.67,5.09-63.64,3.07-4.51,9.31-5.37,5.85-9.5-14.15-16.9-28.4,6.04-31.87,19.46-10.01,38.76,2.05,69.06,31.85,94.02,1.54,1.29,10.73,5.95,8.15,8.74-1.11,1.2-26.6-13.74-28.9-15.24-28.97-18.91-40.02-62.49-27.51-94.13,5.75-14.53,25.43-37.22,42.66-27.94,3.86,2.08,8.79,11.7,12.07,14.1,1.98,1.45,7.3,2.18,10.45,3.72,2.45,1.2,7.2,5.61,8.36,5.92,2.93.78,7.25-5.86,10.44-7.74,16.76-9.86,35.91,3.22,39.94,20.48l-.31,77.68,3.25,5.56,33.11,17.04c2.43,3.42,1.46,5.72-2.56,5.72-12.88-6.99-27.35-12.59-39.98-19.87-9.51-5.48-13.16-7.72-14.18-19.62-1.46-16.93-.03-38.25-.01-55.72,0-4.91,2.79-7.5-1.53-12.55-5.66-6.62-10.41,11.35-10.41,14.78v48Z"/>
</svg>