<?xml version="1.0" encoding="UTF-8"?>
<svg id="_圖層_1" data-name="圖層 1" xmlns="http://www.w3.org/2000/svg" viewBox="0 0 283.46 283.46">
  <defs>
    <style>
      .cls-1 {
        fill: #f5f4f2;
      }
    </style>
  </defs>
  <path class="cls-1" d="M145.88,201.86h-7.99c-5.14,0-17.46-4.47-22.27-6.95-18.2-9.34-31.65-28.5-33.69-48.97-.1-1.02-.5-7.02-.3-7.43.71-1.44,3.52-1.29,4.96-1.07,24.72,3.71,46.11,15.31,55.44,39.89.54,1.43,3.85,11.49,3.85,12.13v12.39Z"/>
  <path class="cls-1" d="M148.08,201.86v-8.54c0-9.5,8.73-26.38,14.9-33.58,11.46-13.37,24.49-19.08,41.57-21.27,2.28-.29,3.82-1.6,6.65-1.04,3.42.67,1.09,3.38.89,5.26-2.1,19.51-7.3,32.69-22.94,45.39-6.98,5.67-23.58,13.78-32.52,13.78h-8.55Z"/>
  <path class="cls-1" d="M148.08,242.89c2.58-29.19,30.29-54.11,59.27-55.35,7.58-.32,5.24-.16,4.87,4.76-1.62,21.33-10.65,38.06-29.12,49.78-10.31,6.55-21.61,9.19-33.78,9.79-.44.21-1.24-.53-1.24-.72,0-2.64-.23-5.7,0-8.26Z"/>
  <path class="cls-1" d="M148.08,143.19c2.94-27.29,26.48-50.46,53.36-54.65,2.19-.34,9.07-1.18,10.79-.62,2.22.72.02,3.02-.17,4.07-.54,3.04.01,7.77-.61,10.96-4.97,25.66-30.28,46.86-56,49.26-1.2.11-7.37.49-7.37-.76,0-2.59-.27-5.79,0-8.26Z"/>
  <path class="cls-1" d="M145.88,152.28c-2.1-.13-4.26.16-6.36.02-26.72-1.89-52.22-24.52-56.9-51.12-.29-1.62-1.4-12.31-1.02-12.83.96-1.32,11.7.26,13.77.64,10.93,2.01,22.23,7.87,30.4,15.35,13.2,12.09,21.29,29.83,20.11,47.94Z"/>
  <path class="cls-1" d="M136.78,251.43c-25.97-2.53-49.9-25.59-54.13-51.12-.28-1.7-1.48-11.66-1.05-12.25.84-1.15,8.7-.12,10.45.11,18.79,2.39,37.34,14.8,46.31,31.39,2.47,4.57,7.51,16.84,7.51,21.69v10.19c-2.94-.21-6.2.28-9.1,0Z"/>
  <path class="cls-1" d="M113.19,62.06c1.19-.35,6.21-.29,7.57-.08,4.67.73,11.38,7.64,13.76,11.59,5.37,8.91,5.29,18.41,6.46,28.24.21,1.76,1.32,3.4,1.5,4.6.28,1.83-1.3,2.62-2.53.84-1.96-2.83-1.24-8.78-1.93-12.39-1.66-8.58-10.53-28.73-20.59-29.6-2-.17-3.83,1.22-5.48.01-1.5-1.1-.05-2.84,1.25-3.22Z"/>
  <path class="cls-1" d="M182.7,63.15c2.17,3.84-4.52,2-6.09,2.22-5.01.7-10.45,7.24-13,11.27-5.64,8.9-7.65,19.91-8.87,30.25-.64,2.21-3.03,1.62-2.81-.56.1-.99,1.37-2.71,1.59-4.51,1.15-9.27.13-15.26,4.38-24.27,4.13-8.77,11.25-16.96,21.9-15.63.63.08,2.69.86,2.9,1.23Z"/>
  <path class="cls-1" d="M144.61,43.89c1.59-.47,6.04-.61,6.18,1.77.1,1.74-1.38,6.52-1.6,8.86-1.6,17.57.2,36.16-1.09,53.45-.24,3.2-1.46,3.2-1.7,0-1.37-18.44.07-38.04-1.64-56.75-.21-2.32-2.68-6.58-.15-7.33Z"/>
</svg>