<?xml version="1.0" encoding="UTF-8"?>
<svg id="_圖層_1" data-name="圖層 1" xmlns="http://www.w3.org/2000/svg" viewBox="0 0 283.46 283.46">
  <defs>
    <style>
      .cls-1 {
        fill: #f5f4f2;
      }
    </style>
  </defs>
  <path class="cls-1" d="M238.83,210.16c6.68,6.8,17.6,15.66,26,19.9.93.47,4.54.92,3.4,2.71-.25.39-2.13,1.4-2.7,1.5-4.46.75-11.61-.01-16.34,0-43.63.14-87.08-.23-130.38-.21-27.79.01-56.08.6-84.13.4-3.69-.03-10,.32-13.31-.19-.86-.13-2.9-1.09-2.9-2.07,0-1.49,2.45-1.57,3.33-2.02,15.03-7.62,27.66-19.77,37.83-33.03,21.86-28.5,33.79-65.31,34.09-101.34l.85-.89,98.81.1c.72.53.27,6.31.35,7.67,2.09,38.47,17.99,79.89,45.1,107.48ZM191.45,97.52h-95.24c.26,10.49-.97,20.87-2.29,31.24,7.45-9.26,21.63-9.02,29.12.03l3.26,6.07c4.21-14.48,24.07-16.54,32.32-4.31.9,1.33,1.33,2.8,2.35,3.93,4.75-13.05,21.75-17.16,31.06-6.1l2.09,3.05c-2.07-11.18-3.07-22.51-2.66-33.91Z"/>
</svg>