<?xml version="1.0" encoding="UTF-8"?>
<svg id="_圖層_1" data-name="圖層 1" xmlns="http://www.w3.org/2000/svg" viewBox="0 0 283.46 283.46">
  <defs>
    <style>
      .cls-1 {
        fill: #f5f4f2;
      }
    </style>
  </defs>
  <path class="cls-1" d="M143.7,153.22l-.23-80.1c-1.79-9.76-11.15-16.23-20.91-14.44-9.76,1.79-16.23,11.15-14.44,20.91l28.71,74.85.11.31s2.09-.6,3.21-.8c1.2-.22,2.39-.35,3.57-.4v-.33Z"/>
  <path class="cls-1" d="M133.56,156.43l-31.37-73.7c-5.44-8.3-16.58-10.61-24.88-5.17-8.3,5.44-10.61,16.58-5.17,24.88l55.56,57.79.22.24s1.69-1.36,2.64-1.99c1.02-.67,2.06-1.25,3.13-1.75l-.14-.3Z"/>
  <path class="cls-1" d="M125.28,162.04l-57.28-55.99c-8.21-5.57-19.39-3.43-24.96,4.78-5.57,8.21-3.43,19.39,4.78,24.96l73.5,32,.3.14s1.04-1.91,1.68-2.85c.68-1.01,1.42-1.95,2.22-2.82l-.24-.22Z"/>
  <path class="cls-1" d="M120.45,171.06l-74.69-28.93c-9.74-1.89-19.17,4.48-21.06,14.22-1.89,9.74,4.48,19.17,14.22,21.06l80.16.49h.33s.2-2.15.42-3.27c.23-1.19.54-2.35.93-3.47l-.31-.11Z"/>
  <path class="cls-1" d="M119.05,181.42l-80.1.84c-9.75,1.86-16.14,11.27-14.28,21.02,1.86,9.75,11.27,16.14,21.02,14.28l74.63-29.28.31-.11s-.61-2.09-.83-3.2c-.23-1.19-.37-2.38-.42-3.56h-.33Z"/>
  <path class="cls-1" d="M129.04,172.79c.03-5.44,3.9-9.97,8.66-12.14,4.49-2.18,10.08-3.17,14.67-.64.16.09.43.16.73.22.49.11.62.76.2,1.05l-1.54,1.06c-.29.29-.76.31-1.08.04-.19-.16-.39-.31-.59-.43-6.18-3.97-17.43.03-19.49,7.2-.34,1.15-.51,2.42-.37,3.53l-1.2.12h0Z"/>
  <path class="cls-1" d="M136.67,189.14s9.38,25-15.63,39.06c-25,14.06-57.03-.78-59.38-4.69,0,0-4.69-3.91-3.91-4.69s8.59,0,9.38.78c.35.35.39.7.32.98-.1.43.04.88.39,1.14,3.68,2.8,21.36,14.84,44.6,8.03,32.03-9.38,24.22-40.63,24.22-40.63Z"/>
  <path class="cls-1" d="M77.86,211.71c1.19,1.38,18.79,20.85,47.57,4.62.08-.04.03-.17-.05-.13-3.82,1.56-16.66,6.09-30.11,2.63,0,0-8.59-3.13-9.38-5.47,0,0-2.1-4.18-8-1.76-.05.02-.06.08-.03.12Z"/>
  <path class="cls-1" d="M95.66,202.81c2.26,2.17,14.1,12.46,31.03,8.25.12-.03.11-.22-.02-.22-3.96-.06-20.84-.66-23.59-6.86,0,0-1.47-2.94-7.27-1.69-.24.05-.32.35-.15.52Z"/>
  <path class="cls-1" d="M157.06,184.21c-2.24,6.73-2.86,13.94-1.51,20.91,1.81,9.37,7.42,20.24,22.93,24.78,23.26,6.81,40.94-5.25,44.61-8.04.35-.26.49-.71.38-1.13-.07-.28-.04-.63.32-.99.78-.78,8.59-1.56,9.38-.78s-3.91,4.69-3.91,4.69c-2.34,3.91-33.94,17.33-60.17,5.72-21.5-9.51-16.02-40.24-16.02-40.24,0,0,.33-6.54,2.9-9.52,2.23-2.59.17-9.98-.41-11.9-.03-.11.11-.18.18-.09,1.12,1.36,4.68,6.51,2.02,14.48l-.7,2.11Z"/>
  <path class="cls-1" d="M213.07,211.85c-1.19,1.38-18.79,20.85-47.57,4.62-.08-.04-.03-.17.05-.13,3.82,1.56,16.66,6.09,30.11,2.63,0,0,8.59-3.13,9.38-5.47,0,0,2.1-4.18,8-1.76.05.02.06.08.03.12Z"/>
  <path class="cls-1" d="M195.28,202.95c-2.26,2.17-14.1,12.46-31.03,8.25-.12-.03-.11-.22.02-.22,3.96-.06,20.84-.66,23.59-6.86,0,0,1.47-2.94,7.27-1.69.24.05.32.35.15.52Z"/>
  <path class="cls-1" d="M120.81,183.69c.71-1.55,3.97-7.46,12.45-7.49,1.17,0,2.31.54,2.95,1.52s.73,2.36-2.28,3.22c-4.75,1.36-11.27,2.71-12.9,3.05-.17.03-.3-.14-.23-.29Z"/>
  <circle class="cls-1" cx="146.05" cy="175.08" r="2.73"/>
  <circle class="cls-1" cx="118.7" cy="200.86" r="5.86"/>
  <circle class="cls-1" cx="171.05" cy="200.86" r="5.86"/>
  <path class="cls-1" d="M146.54,153.22l.23-80.1c1.79-9.76,11.15-16.23,20.91-14.44,9.76,1.79,16.23,11.15,14.44,20.91l-28.71,74.85-.11.31s-2.09-.6-3.21-.8c-1.2-.22-2.39-.35-3.57-.4v-.33Z"/>
  <path class="cls-1" d="M156.68,156.43l31.37-73.7c5.44-8.3,16.58-10.61,24.88-5.17,8.3,5.44,10.61,16.58,5.17,24.88l-55.56,57.79-.22.24s-1.69-1.36-2.64-1.99c-1.02-.67-2.06-1.25-3.13-1.75l.14-.3Z"/>
  <path class="cls-1" d="M164.96,162.04l57.28-55.99c8.21-5.57,19.39-3.43,24.96,4.78,5.57,8.21,3.43,19.39-4.78,24.96l-73.5,32-.3.14s-1.04-1.91-1.68-2.85c-.68-1.01-1.42-1.95-2.22-2.82l.24-.22Z"/>
  <path class="cls-1" d="M169.79,171.06l74.69-28.93c9.74-1.89,19.17,4.48,21.06,14.22,1.89,9.74-4.48,19.17-14.22,21.06l-80.16.49h-.33s-.2-2.15-.42-3.27c-.23-1.19-.54-2.35-.93-3.47l.31-.11Z"/>
  <path class="cls-1" d="M171.19,181.42l80.1.84c9.75,1.86,16.14,11.27,14.28,21.02-1.86,9.75-11.27,16.14-21.02,14.28l-74.63-29.28-.31-.11s.61-2.09.83-3.2c.23-1.19.37-2.38.42-3.56h.33Z"/>
</svg>