<?xml version="1.0" encoding="UTF-8"?>
<svg id="_圖層_1" data-name="圖層 1" xmlns="http://www.w3.org/2000/svg" viewBox="0 0 283.46 283.46">
  <defs>
    <style>
      .cls-1 {
        fill: #f5f4f2;
        stroke: #777065;
        stroke-miterlimit: 10;
      }
    </style>
  </defs>
  <path class="cls-1" d="M129.35,234.62c-1.42-.09-2.02-.34-2.34-1.9-2.31-11.41-2.97-23.9-4.94-35.45-.42-2.48-1.54-9.13-3.03-10.82-.42-.47-1.18-.79-1.71-1.4-9-10.33-14.68-23.26-19.34-36.03-2.21-6.05-2.91-14.11-5.59-19.55-.46-.94-2.08-3.19-2.97-3.59-1.56-.7-5.55-.84-7.75-1.51-6.17-1.87-14.91-8.49-15.73-15.35-.08-.67-.17-2.77-.04-3.31.17-.69,1.91-.13,2.41-.16,14.41-.99,29.05.11,43.53-.32,2.47.05,3.51,2.27,3.78,4.42,1.04,8.38-.41,15.12,5.81,22.16,7.92,8.97,18.95,7.1,29.66,7.05,11.97-.05,23.95.18,35.88.31,6.55.07,12.07-1.06,18.3-2.91,1.43-.42,3.03-2.2,3.54.57.76,4.15-3.81,9.99-6.7,12.65-1.78,1.64-4.1,2.39-4.51,5.09-.19,1.29.07,2.89,0,4.23-.3,5.15-1.09,12.87.7,17.64,2.29,6.11,5.88,12.16,7.79,18.51-3.24,12.05-4.62,25.61-8.35,37.43-.35,1.12-.35,2.09-1.69,2.27s-6.83.11-7.77-.45c-.32-.19-.56-.41-.56-.81l7.85-38.4c-.3-.89-1.61-.19-2.35-.17-7.77.23-13-3.45-16.83-10.03-3.13-5.37-4.2-11.81-3.67-17.95-.66.35-.78,1.98-.84,2.69-.83,10.21,4.34,23.04,14.96,25.72.57.14,1.13.16,1.71.13l-9.3,38.8c-.44.64-8.68.66-9.23.21-.23-.19-.38-.44-.41-.74l7.6-38.81c-6.37,1.02-12.29-.14-16.93-4.69l11.87.14v-.85s-22.88,0-22.88,0c-.48,1.21.29,2.4.48,3.61,2.18,13.6,3.71,27.38,5.68,40.98-.5.81-6.83.74-7.98.58-.5-.07-1.5-.34-1.73-.82l-6.36-44.07c-1.64-.06-3.31.07-4.95,0-.59-.02-2.77-.79-2.66.11.44,1.99.84,4.25,1.09,6.26,1.49,12.4,2.39,24.88,4,37.27.13.36-.51,1.26-.72,1.26-2.2,0-4.62.14-6.78,0ZM96.53,118.14c1.1,1.16,3.42,1.4,4.81.62,2.58-1.43,2.42-6.19-.33-7.22-4.13-1.55-7.13,3.79-4.48,6.6Z"/>
  <path class="cls-1" d="M109.86,99.87c3.95-.19,7.38-1.63,10.33-4.36,4.26-3.94,5.08-7.03,5.35-12.73.3-6.32-.22-12.86,0-19.21.09-1.05,2.17-1.05,2.26,0,.05,3.96-.06,7.92-.01,11.88.07,5.29,1.22,12.48-1.73,17.17-3.83,6.08-9.42,9.88-16.77,10.07-1.09.03-1.92-.3-2.83-.3-4.93,0-9.93.13-14.84-.11-.53-.37-.32-2.42.16-2.42,5.92,0,12.21.28,18.08,0Z"/>
  <path class="cls-1" d="M127.8,117.39c-.73-.09-1.66.14-2.34-.01-.13-.03-1.95-.87-2.37-1.07-4.41-2.02-7.54-5.96-6.84-11.04,6.75-.67,11.98,5.61,11.56,12.12Z"/>
  <path class="cls-1" d="M135.43,81.51s-.07-.45.19-.57c5.04-2.54,10.41-5.73,11.32-12.07.16-1.07-.11-5.55.39-5.97.23-.19,1.99-.17,2.19.43.18.55.14,5.66.02,6.44-.81,5.24-7.48,12.32-12.51,13.76-1.52.44-6,1.21-7.35.76-.83-.27-.53-2.79-.04-2.79.85,0,5.54.14,5.79,0Z"/>
  <path class="cls-1" d="M115.37,97.33c.07-1.86-.14-3.72-.18-5.54-.24-9.27.08-18.63.17-27.95-.13-1.42,2.42-1.42,2.29,0v31.67c.34.88-2.08,2.04-2.27,1.82Z"/>
</svg>