<?xml version="1.0" encoding="UTF-8"?>
<svg id="_圖層_1" xmlns="http://www.w3.org/2000/svg" version="1.1" viewBox="0 0 502.9 259.2">
  <!-- Generator: Adobe Illustrator 29.0.1, SVG Export Plug-In . SVG Version: 2.1.0 Build 192)  -->
  <defs>
    <style>
      .st0, .st1 {
        fill: black;
        <!-- fill: rgb(126, 120, 115); -->
      }

      .st1, .st2 {
        stroke: #000;
        stroke-miterlimit: 10;
      }

      .st2 {
        fill: none;
        stroke-width: 1.5px;
      }
    </style>
  </defs>
  <path class="st0" d="M341.7,131.5c0,.7-.6.9-1,1.2-3,1.9-6.5,3.4-10.1,2.5l.2-.7c3.2.1,6.4-1.5,9-3.1.4-.2.6-.6,1.4-.5l.5.6h0Z"/>
  <path class="st0" d="M318.3,131.5c0,.7.6.9,1,1.2,3,1.9,6.5,3.4,10.1,2.5l-.2-.7c-3.2.1-6.4-1.5-9-3.1-.4-.2-.6-.6-1.4-.5l-.5.6h0Z"/>
  <path class="st0" d="M457.9,182.7h0c-.4-.3-.5-.9-.1-1.3,9.5-10.8,22.9-16.3,40.1-16.5.5,0,1,.4,1,.9h0c0,.5-.4.9-.9.9-16.6.2-29.6,5.5-38.7,15.9-.3.4-.9.4-1.3.1h-.1Z"/>
  <circle class="st0" cx="471.3" cy="97" r="2.1"/>
  <path class="st0" d="M130,183.5c16.3-10.2,28-25.4,34.7-45.1,5.7-16.6,6-31.3,5.9-35.2v-.2s.1,0,.2,0h56.5s.2,0,.2,0v.2c0,4.1.2,18.7,5.9,35.2,6.7,19.7,18.4,34.9,34.7,45.1h2.2c-16.9-10.1-29-25.4-36-45.5-5.6-16.4-5.9-30.9-5.9-34.9s-.1-.9-.5-1.1c-.2-.2-.7-.5-1.1-.5h-56.5c-.4,0-.9,0-1.1.5-.2.2-.5.7-.5,1.1,0,4-.2,18.4-5.9,34.9-6.8,20-19.1,35.4-36,45.5h3.2Z"/>
  <path class="st0" d="M271.6,183c-16.8-10-28.8-25.2-35.6-45.1-5.6-16.3-5.7-30.6-5.9-34.6s-.2-1.2-.6-1.6c-.5-.5-1-.7-1.6-.7h-56.5c-.6,0-1.2.2-1.6.7-.5.5-.6,1-.6,1.6,0,4-.2,18.3-5.9,34.6-6.5,18.9-17.7,33.5-33.1,43.5l2.5,1.5c15.4-10.3,26.6-25.2,33.2-44.2,5.6-16.3,6-30.6,6-35.2h55.9c0,4.5.4,18.9,6,35.2,6.8,19.8,18.7,35.1,35.1,45.5h5.2l-2.2-1.4-.2.2h0Z"/>
  <path class="st2" d="M477,155.3"/>
  <g id="_圖層_3">
    <g>
      <path class="st0" d="M17.5,179.2c-4,.6-8-1.1-10.1-4.6-.4-.5-.5-.9-.5-.9-3-7.5,1.9-11.3,4-12.7.5-.2.6-.9.4-1.5l-.6-1c-.2-.5-1-.7-1.5-.4-2.1,1.2-6.7,5.1-4.9,13.4,1.5,6.5,6,8.7,9.2,9.5,1.5.4,3.1.4,4.6,0-.2-.6-.5-1.2-.7-1.9h.1Z"/>
      <path class="st0" d="M139.3,146.4c-1.5-6.5-6-8.7-9.2-9.5-2-.5-4.1-.2-6.1.5h-.5c.2.7.5,1.4.7,1.9,4.5-1.6,9.6,0,12.1,4.1.4.5.5.9.5.9,3,7.5-1.9,11.3-4,12.7-.5.2-.6.9-.4,1.5l.6,1c.2.5,1,.7,1.5.4,2.1-1.2,6.7-5.1,4.9-13.4h-.1Z"/>
      <path class="st0" d="M134.2,160.3c-1.6-1.1-3.6-1.7-5.6-1.9v1.7c0,.6,0,.1,0,.2,4.5.5,8.1,3.9,8.8,8.3v1c-.1,8.1-6.1,9.8-8.6,10.2-.6,0-1,.6-.9,1.1v1.2c.2.6.7,1,1.4.9,2.4-.4,8.2-2.1,9.6-10.6,1.1-6.5-2.1-10.3-5-12.3h.2v.2Z"/>
      <path class="st0" d="M129.2,121.7c-3.9-5.4-8.8-5.7-12.2-5.2-2,.4-4,1.4-5.5,2.7l-.4.4,1.4,1.4h0c3.5-3.2,8.8-3.6,12.8-.9.5.4.7.6.7.6,5.6,5.9,2.6,11.2,1.1,13.2-.4.5-.2,1.1.2,1.5l1,.7c.5.4,1.1.2,1.5-.2,1.5-2,4.2-7.2-.7-14.3h.1Z"/>
      <path class="st0" d="M95.3,108.5c2.1-4.2,6.7-6.6,11.3-5.5.6,0,1,.2,1,.2,7.3,3.2,6.7,9.5,6.1,11.8,0,.5.2,1.1.7,1.2l1.1.4c.6,0,1.1,0,1.4-.7.6-2.4,1.1-8.3-6.1-13-5.6-3.5-10.3-2-13.2,0-1.7,1.1-3.1,2.7-4,4.6v.2c.5.2,1,.5,1.6.7v.2Z"/>
      <path class="st0" d="M73.5,103.1c.4-4.6,3.7-8.6,8.3-9.3h1c8.1,0,9.8,6.1,10.2,8.6,0,.6.6,1,1.1.9h1.2c.6-.2,1-.7.9-1.4-.4-2.4-2.1-8.2-10.6-9.6-6.5-1.1-10.3,2.1-12.3,5-1.2,1.7-1.9,3.7-1.9,5.9h0c.6.2,1.2.2,1.9.2v-.2h.2Z"/>
      <path class="st0" d="M52.4,106.3c-1.2-4.4.4-9,4.2-11.5.5-.4.9-.5.9-.5,7.5-3,11.3,1.9,12.7,4,.2.5.9.6,1.5.4l1-.6c.5-.2.7-1,.4-1.5-1.2-2.1-5.1-6.7-13.4-4.9-6.5,1.5-8.7,6-9.5,9.2s-.2,4,.4,5.9c.6-.2,1.2-.5,1.9-.6h-.1Z"/>
      <path class="st0" d="M31.6,119c.5-.5,1-.9,1.5-1.4-2.2-3.5-2.4-8,0-11.5.4-.5.6-.7.6-.7,5.9-5.6,11.2-2.6,13.2-1.1.5.4,1.1.2,1.5-.2l.7-1c.4-.5.2-1.1-.2-1.5-2-1.5-7.2-4.2-14.3.7-5.4,3.9-5.7,8.8-5.2,12.2.2,1.6,1,3.2,2,4.5h.1Z"/>
      <path class="st0" d="M19,137.1c.2-.6.5-1.2.9-1.9-3.1-2.4-4.7-6.4-3.9-10.3.1-.6.2-1,.2-1,3.2-7.3,9.5-6.7,11.8-6.1.5,0,1.1-.2,1.2-.7l.4-1.1c.1-.6-.1-1.1-.7-1.4-2.4-.6-8.3-1.1-13,6.1-3.5,5.6-2,10.3-.1,13.2.7,1.2,1.9,2.4,3.1,3.1h.1Z"/>
      <path class="st0" d="M14.3,157.6c-4-.9-7.2-4.1-8-8.2v-1c0-8.1,6.1-9.8,8.6-10.2.6,0,1-.6.9-1.1v-1.2c-.2-.6-.7-1-1.4-.9-2.4.4-8.2,2.1-9.6,10.6-1.1,6.5,2.1,10.3,5,12.3,1.4,1,3,1.6,4.6,1.7v-2h-.1,0Z"/>
    </g>
  </g>
  <path class="st0" d="M330.2,93"/>
  <path class="st0" d="M330.2,92.3h0"/>
  <path class="st0" d="M386,166.5c.4-.1,1.2-.3,1.2-.5,0-.5.4-1,1-.9,4.7.2,25.5,2,39.9,16.4s.4,1,0,1.3c-.4.4-.9.3-1.3,0h-.1c-13.9-14.1-34.2-15.7-38.6-15.9-1.1,0-1.7,0-2-.2v-.2Z"/>
  <path class="st0" d="M446.1,182.7c-.6,0-1.2-.2-1.7-.7-.6-.5-.9-1.3-.9-2.1,1.5-24,6.4-42,14.8-53.5,6.8-9.3,14-11.9,17.7-12.6.8-.2,1.6,0,2.3.5.6.5,1,1.2,1,2,2.1,56.3-24.4,65-32.5,66.3h-.7ZM476.6,115.6h-.2c-6.5,1.2-27.7,9.4-31,64.3,0,.2.1.5.3.7.1.1.3.2.6.2h.2c7.9-1.3,33-9.8,30.9-64.4,0-.3-.1-.5-.3-.6-.1,0-.3-.2-.5-.2Z"/>
  <circle class="st0" cx="414.9" cy="97.1" r="2.1"/>
  <circle class="st0" cx="443.2" cy="90" r="2.1"/>
  <path class="st0" d="M444.2,162.6h-1.9v-.9c-2.6-40.7-26.8-49.1-31.6-50.3h-.1c-1-.2-1.3-.9-1.2-2,.5-2.9,1.8-8,5.6-9.3.5-.2,5.2-1.4,13.3,8.1,1.5-2.4,5.4-7.6,11.9-10.1,2-.9,4-.9,6.3,0,6.5,2.5,10.4,7.7,11.9,10.1,8.1-9.5,12.7-8.3,13.3-8.1,2.8.9,4.7,4,5.6,9.3.2,1,0,1.6-1.2,2-.2,0-.4.2-.7.3-18.9,7.3-29.3,24.2-30.9,50.1v.9h-.3ZM411.2,109.6c4.7,1.2,26.8,8.9,32,43.8,2.5-16.7,10.3-35.3,31.3-43.5l.7-.3h0c-1-5.6-2.9-7.4-4.3-7.8,0,0-4.3-1.1-12.1,8.5l-.9,1.1-.7-1.3s-3.9-7.5-11.6-10.4c-1.8-.7-3.3-.7-4.9,0-7.7,3-11.6,10.3-11.6,10.4l-.7,1.3-.9-1.1c-7.8-9.6-12-8.6-12.1-8.5-2.9,1-4,5.8-4.3,7.8h.1Z"/>
  <path class="st0" d="M440.5,182.7h-.5c-8.2-1.3-34.7-10-32.5-66.3,0-.8.3-1.5,1-2,.6-.5,1.5-.7,2.3-.5,6.7,1.2,29.1,9.7,32.5,66,0,.9-.3,1.7-.9,2.2-.5.4-1.1.7-1.8.7h-.1ZM440.3,180.8h.1c.3,0,.5,0,.6-.2.2-.2.3-.4.3-.7-3.3-54.9-24.6-63-31-64.2-.3,0-.6,0-.8,0-.1,0-.3.3-.3.6-2.1,54.7,23,63.2,30.9,64.4h.2Z"/>
  <rect class="st1" x="276.3" y="-93.4" width="39.5" height="39.4"/>
  <path class="st0" d="M386.1,166.7c0-.2-.1-.5-.2-.7-3.9-12.5-19.5-31.9-32.5-35.3-3.9-1-7.3,0-10.1-3.8-7-9.1,7.6-19.5,16.1-16.3-1.8-7.3-11.6-8.5-17.3-4.8s-2,2.6-3.7,1.6c.3-4.9-3.6-11-7-14.4s-1.5-1.2-2.1-1.2h0c-.6,0-1.2.4-2.1,1.2-3.4,3.4-7.3,9.5-7,14.4-1.7,1-2.4-.8-3.7-1.6-5.7-3.7-15.5-2.5-17.3,4.8,8.5-3.3,23.1,7.1,16.1,16.3-2.9,3.7-6.3,2.8-10.1,3.8-12.9,3.4-28.6,22.8-32.5,35.3s-2.2,9.9-.9,14.1,1.5,3.5,2.1,3.8l-5.3-.8-2.8-2.7c-1.9-6.8,1.3-14.5,4.6-20.4,5.8-10.3,20.5-24.8,31.5-29.1,3.3-1.3,7.6-1.3,9.7-4.3,4.8-6.8-2.3-16.6-10-15.6s-3.6,1.4-5.6.9c-1.9-.6,1-4.2,1.8-4.9,3.3-3.1,9.1-4.8,13.5-3.9s4.3,1.7,6.4,2.3c1.4-4.1,3.4-8.1,6.3-11.3,1.4-1.6,3.1-3.5,5.2-3.6h0c2,0,3.7,2,5.2,3.6,2.9,3.2,4.9,7.2,6.3,11.3,2.1-.5,4.1-1.8,6.4-2.3,4.4-.8,10.2.8,13.5,3.9s3.7,4.3,1.8,4.9c-2,.6-3.8-.6-5.6-.9-7.7-1-14.8,8.9-10,15.6,2.1,2.9,6.4,3,9.7,4.3,11.1,4.3,25.7,18.8,31.5,29.1,1.2,2.2,2.4,4.5,3.4,7l-5.5-.3Z"/>
</svg>